M48
;Layer_Color=9474304
;FILE_FORMAT=2:4
METRIC,LZ
;TYPE=PLATED
T1F00S00C0.7112
T2F00S00C0.7500
T3F00S00C0.7620
T5F00S00C0.8890
T6F00S00C0.9000
T7F00S00C1.0200
T8F00S00C1.0500
T9F00S00C1.1000
T10F00S00C1.3970
T11F00S00C1.7000
T12F00S00C3.0000
;TYPE=NON_PLATED
T13F00S00C1.0200
T14F00S00C1.1000
T15F00S00C1.2000
%
T01
X18161Y785
X18669Y78486
X18923
X19177
X19431
X15825Y815
X15175Y815
X14525Y815
X13875Y8175
X127Y845
X12025Y9325
X122538Y102235
Y104775
X1295Y1155
X138Y9975
X14275Y10375
X1475Y1035
X1525Y1
X1575Y9975
X1625
X167132Y103886
X171704
X17145Y87376
X16891
X17653Y87122
X18923
X19177Y87376
X19685Y87122
X19525Y995
X195072Y10668
X1975Y10675
X191
X201168Y10668
X20375Y10675
X20175Y9925
X208Y995
X20701Y87376
X21975Y94766
X22475Y9475
X22975
X235
X23525Y11275
X245Y11125
X24825Y11025
X2475Y1085
X252062Y1091
X2408Y104538
X245Y9875
X23997Y9473
X245Y124
X24765Y122174
X228981Y122428
X23241Y126365
X2286Y130175
X22375Y13425
X23025Y1395
Y14175
X21975Y15175
X2145
X19939Y14224
X19177Y142494
X18923
X18669
X18415
X18542Y136652
X18923Y14605
X1739304Y142494
X16637
X16891Y145288
X16975Y157
X1635
X162598Y1205
X168016Y12075
X142608Y12565
X140462Y127
X138925Y132
X14537Y134105
X1395Y141
X142037Y14687
X14425Y14675
X1490149Y1556341
X1387649Y1553841
X128275Y154775
X12625Y141
X121205Y14236
X1195Y13925
X134175Y1363
X134075Y126775
X12663Y128255
X117205Y14236
T02
X117Y8375
X11954Y8121
Y8629
T03
X14224Y9398
X14478
X14732
X14986
X1524
X15494
X15748
X192532Y94107
X195072
X197612
X200152
X202692
X205232
X207772
T05
X9652Y11303
Y11557
Y11811
X10414Y10541
X10668
X10922
T06
X103505Y12319
Y12827
X109855
Y12319
T07
X16361Y15367
X16661
X16961
X17261
X17561
X17861
X18161
X18461
T08
X22733Y15087
X22987
Y15367
X22733
X12065Y15393
Y15113
X11811
Y15393
T09
X22352Y1143
Y11684
Y11938
T10
X9906Y1089025
X1143
Y1222375
X9906
T11
X1329Y8
X1366
X13475Y82
T12
X11075Y835
X23675
Y1495
X11075
T13
X18589Y15269
T14
X141287Y152032
X145987
T15
X13475Y775
M30
