G04*
G04 #@! TF.GenerationSoftware,Altium Limited,Altium Designer,22.7.1 (60)*
G04*
G04 Layer_Color=65535*
%FSLAX44Y44*%
%MOMM*%
G71*
G04*
G04 #@! TF.SameCoordinates,7684CF66-3EF2-496F-B3A4-9C416311D090*
G04*
G04*
G04 #@! TF.FilePolarity,Positive*
G04*
G01*
G75*
%ADD10C,0.1000*%
%ADD11C,0.2000*%
%ADD12C,0.2500*%
%ADD13C,0.4000*%
%ADD14C,0.1270*%
%ADD15C,0.1524*%
%ADD16C,0.2540*%
%ADD17C,0.0127*%
%ADD18C,0.0064*%
D10*
X2450500Y987500D02*
G03*
X2450500Y986500I0J-500D01*
G01*
D02*
G03*
X2450500Y987500I0J500D01*
G01*
Y1237500D02*
G03*
X2450500Y1236500I0J-500D01*
G01*
D02*
G03*
X2450500Y1237500I0J500D01*
G01*
X2540500Y1115000D02*
G03*
X2540500Y1114000I0J-500D01*
G01*
D02*
G03*
X2540500Y1115000I0J500D01*
G01*
X2450500Y1112500D02*
G03*
X2450500Y1111500I0J-500D01*
G01*
D02*
G03*
X2450500Y1112500I0J500D01*
G01*
X2363000D02*
G03*
X2363000Y1111500I0J-500D01*
G01*
D02*
G03*
X2363000Y1112500I0J500D01*
G01*
X1322500Y740000D02*
Y780001D01*
Y740000D02*
Y780001D01*
Y740000D02*
X1372500D01*
X1322500D02*
X1372500D01*
Y780001D01*
Y740000D02*
Y780001D01*
D11*
X1604867Y806340D02*
G03*
X1604867Y806340I-707J0D01*
G01*
X1473907Y806650D02*
G03*
X1473907Y806650I-707J0D01*
G01*
X1410707Y807300D02*
G03*
X1410707Y807300I-707J0D01*
G01*
X1440570Y1468570D02*
G03*
X1440570Y1468570I-1000J0D01*
G01*
X1007300Y1289200D02*
G03*
X1007300Y1289200I-1000J0D01*
G01*
X2235707Y1412500D02*
G03*
X2235707Y1412500I-707J0D01*
G01*
X1347500Y839000D02*
G03*
X1347500Y840000I0J500D01*
G01*
D02*
G03*
X1347500Y839000I0J-500D01*
G01*
D02*
G03*
X1347500Y840000I0J500D01*
G01*
X1295900Y1116500D02*
G03*
X1295900Y1116500I-500J0D01*
G01*
X1538827Y806340D02*
G03*
X1538827Y806340I-707J0D01*
G01*
X2265500Y1337250D02*
Y1347750D01*
X2207500Y1337250D02*
Y1347750D01*
X2344250Y965200D02*
X2354750D01*
X2394750Y965000D02*
X2405250D01*
X2293450Y965200D02*
X2303950D01*
X2242650D02*
X2253150D01*
X2191850D02*
X2202350D01*
X1705000Y1012250D02*
Y1022750D01*
X1660000Y1012250D02*
Y1022750D01*
X1417500Y1012250D02*
Y1022750D01*
X1465000Y1012250D02*
Y1022750D01*
X1370000Y1012250D02*
Y1022750D01*
X1262000Y1016400D02*
X1278000D01*
X1262000Y1066400D02*
X1278000D01*
Y1016400D02*
Y1066400D01*
X1262000Y1016400D02*
Y1066400D01*
X1288400Y952500D02*
X1302400D01*
X1264750Y793750D02*
X1275250D01*
X1264350Y863600D02*
X1274850D01*
X1615000Y1012250D02*
Y1022750D01*
X1565000Y1012250D02*
Y1022750D01*
X1515000Y1012250D02*
Y1022750D01*
D12*
X1246750Y1069450D02*
G03*
X1246750Y1069450I-1250J0D01*
G01*
D13*
X1197152Y891673D02*
G03*
X1197152Y891673I-1732J0D01*
G01*
D14*
X1616850Y1515800D02*
X1865350D01*
X1616850D02*
Y1557600D01*
X1865350D01*
Y1515800D02*
Y1557600D01*
X1601100Y1531700D02*
Y1541700D01*
X1611100Y1536700D01*
X1601100Y1531700D02*
X1611100Y1536700D01*
X1407870Y1585320D02*
X1464870D01*
X1407870Y1503320D02*
X1464870D01*
X1407870Y1579520D02*
Y1585320D01*
X1464870Y1579520D02*
Y1585320D01*
Y1503320D02*
Y1509120D01*
X1407870Y1503320D02*
Y1509120D01*
X955800Y1204700D02*
X987300D01*
X955800Y1106700D02*
Y1204700D01*
Y1106700D02*
X987300D01*
Y1104000D02*
Y1106700D01*
X1006100Y1076700D02*
X1018300D01*
Y1044700D02*
Y1076700D01*
X1115300Y1044700D02*
Y1076700D01*
X1127600D01*
X1146300Y1104500D02*
Y1115700D01*
X1161800D01*
Y1196700D01*
X1146300D02*
X1161800D01*
X1121300Y1235700D02*
X1127600D01*
X1121300D02*
Y1298700D01*
X1012300D02*
X1121300D01*
X1012300Y1235700D02*
Y1298700D01*
X1006100Y1235700D02*
X1012300D01*
D15*
X1235710Y944118D02*
Y956310D01*
X1253490Y944118D02*
Y956310D01*
D16*
X1388110Y922020D02*
X1422400D01*
X1388110D02*
Y927100D01*
X1422400Y922020D02*
X1583690D01*
X1609090D01*
Y952500D01*
X1388110Y922020D02*
Y951230D01*
X1609090Y952500D02*
X1891030D01*
Y923290D02*
X1925320D01*
X1891030D02*
Y928370D01*
X1925320Y923290D02*
X2086610D01*
X2112010D01*
Y953770D01*
X1891030Y923290D02*
Y952500D01*
X1350010Y951230D02*
X1388110D01*
X1350010D02*
Y1490980D01*
X2112010Y953770D02*
X2152650D01*
Y1488440D01*
X1350010Y1490980D02*
X2151380D01*
X2152650Y1488440D02*
Y1489710D01*
Y1490980D01*
X2151380D02*
X2152650D01*
X1715770Y1181100D02*
Y1200150D01*
Y1181100D02*
X1770380D01*
Y1200150D01*
X1802130D01*
X1744980Y1257300D02*
X1802130Y1200150D01*
X1739900Y1257300D02*
X1744980D01*
X1687830Y1205230D02*
X1739900Y1257300D01*
X1685290Y1200150D02*
X1715770D01*
X1682750D02*
X1687830Y1205230D01*
X1147900Y789850D02*
X1243201D01*
X1147900D02*
Y885150D01*
X1243201D01*
Y789850D02*
Y885150D01*
X1513272Y1139807D02*
Y1119814D01*
X1523269Y1109817D01*
X1533265Y1119814D01*
Y1139807D01*
X1543262Y1109817D02*
X1553259D01*
X1548260D01*
Y1129810D01*
X1543262D01*
X1583249Y1109817D02*
X1573253D01*
X1568254Y1114815D01*
Y1124812D01*
X1573253Y1129810D01*
X1583249D01*
X1588248Y1124812D01*
Y1119814D01*
X1568254D01*
X1598244Y1129810D02*
Y1114815D01*
X1603243Y1109817D01*
X1608241Y1114815D01*
X1613239Y1109817D01*
X1618238Y1114815D01*
Y1129810D01*
X1628235Y1109817D02*
X1638231D01*
X1633233D01*
Y1129810D01*
X1628235D01*
X1653227Y1109817D02*
Y1129810D01*
X1668222D01*
X1673220Y1124812D01*
Y1109817D01*
X1693214Y1099820D02*
X1698212D01*
X1703210Y1104818D01*
Y1129810D01*
X1688215D01*
X1683217Y1124812D01*
Y1114815D01*
X1688215Y1109817D01*
X1703210D01*
X1763191Y1139807D02*
Y1109817D01*
X1748196D01*
X1743197Y1114815D01*
Y1124812D01*
X1748196Y1129810D01*
X1763191D01*
X1773188Y1109817D02*
X1783185D01*
X1778186D01*
Y1129810D01*
X1773188D01*
X1798180D02*
Y1109817D01*
Y1119814D01*
X1803178Y1124812D01*
X1808176Y1129810D01*
X1813175D01*
X1843165Y1109817D02*
X1833168D01*
X1828170Y1114815D01*
Y1124812D01*
X1833168Y1129810D01*
X1843165D01*
X1848163Y1124812D01*
Y1119814D01*
X1828170D01*
X1878154Y1129810D02*
X1863159D01*
X1858160Y1124812D01*
Y1114815D01*
X1863159Y1109817D01*
X1878154D01*
X1893149Y1134809D02*
Y1129810D01*
X1888150D01*
X1898147D01*
X1893149D01*
Y1114815D01*
X1898147Y1109817D01*
X1913142D02*
X1923139D01*
X1918141D01*
Y1129810D01*
X1913142D01*
X1943133Y1109817D02*
X1953129D01*
X1958128Y1114815D01*
Y1124812D01*
X1953129Y1129810D01*
X1943133D01*
X1938134Y1124812D01*
Y1114815D01*
X1943133Y1109817D01*
X1968125D02*
Y1129810D01*
X1983120D01*
X1988118Y1124812D01*
Y1109817D01*
X1488915Y1327150D02*
X1505576D01*
X1497245D01*
Y1377134D01*
X1488915Y1368803D01*
X1563891Y1327150D02*
X1530568D01*
X1563891Y1360473D01*
Y1368803D01*
X1555560Y1377134D01*
X1538899D01*
X1530568Y1368803D01*
X1580552D02*
X1588882Y1377134D01*
X1605544D01*
X1613874Y1368803D01*
Y1360473D01*
X1605544Y1352142D01*
X1613874Y1343811D01*
Y1335481D01*
X1605544Y1327150D01*
X1588882D01*
X1580552Y1335481D01*
Y1343811D01*
X1588882Y1352142D01*
X1580552Y1360473D01*
Y1368803D01*
X1588882Y1352142D02*
X1605544D01*
X1630536Y1368803D02*
X1663858Y1335481D01*
X1630536D02*
X1663858Y1368803D01*
X1630536Y1352142D02*
X1663858D01*
X1647197Y1335481D02*
Y1368803D01*
X1713842Y1377134D02*
X1697181Y1368803D01*
X1680520Y1352142D01*
Y1335481D01*
X1688850Y1327150D01*
X1705511D01*
X1713842Y1335481D01*
Y1343811D01*
X1705511Y1352142D01*
X1680520D01*
X1755495Y1327150D02*
Y1377134D01*
X1730503Y1352142D01*
X1763826D01*
X1830471Y1377134D02*
Y1327150D01*
X1855463D01*
X1863794Y1335481D01*
Y1368803D01*
X1855463Y1377134D01*
X1830471D01*
X1905447D02*
X1888786D01*
X1880455Y1368803D01*
Y1335481D01*
X1888786Y1327150D01*
X1905447D01*
X1913777Y1335481D01*
Y1368803D01*
X1905447Y1377134D01*
X1930439D02*
X1963761D01*
X1947100D01*
Y1327150D01*
X2013745Y1368803D02*
X2005415Y1377134D01*
X1988753D01*
X1980423Y1368803D01*
Y1360473D01*
X1988753Y1352142D01*
X2005415D01*
X2013745Y1343811D01*
Y1335481D01*
X2005415Y1327150D01*
X1988753D01*
X1980423Y1335481D01*
X1477021Y1516382D02*
Y1531617D01*
X1484639D01*
X1487178Y1529078D01*
Y1524000D01*
X1484639Y1521461D01*
X1477021D01*
X1494795Y1516382D02*
X1499874D01*
X1502413Y1518922D01*
Y1524000D01*
X1499874Y1526539D01*
X1494795D01*
X1492256Y1524000D01*
Y1518922D01*
X1494795Y1516382D01*
X1507491Y1526539D02*
Y1518922D01*
X1510030Y1516382D01*
X1512570Y1518922D01*
X1515109Y1516382D01*
X1517648Y1518922D01*
Y1526539D01*
X1530344Y1516382D02*
X1525266D01*
X1522726Y1518922D01*
Y1524000D01*
X1525266Y1526539D01*
X1530344D01*
X1532883Y1524000D01*
Y1521461D01*
X1522726D01*
X1537961Y1526539D02*
Y1516382D01*
Y1521461D01*
X1540501Y1524000D01*
X1543040Y1526539D01*
X1545579D01*
X1574804Y1569718D02*
X1584961Y1554483D01*
Y1569718D02*
X1574804Y1554483D01*
X1600196D02*
X1590039D01*
X1600196Y1564639D01*
Y1567178D01*
X1597657Y1569718D01*
X1592578D01*
X1590039Y1567178D01*
X1230376Y1094735D02*
Y1082039D01*
X1232915Y1079500D01*
X1237993D01*
X1240533Y1082039D01*
Y1094735D01*
X1245611Y1092196D02*
X1248150Y1094735D01*
X1253229D01*
X1255768Y1092196D01*
Y1089657D01*
X1253229Y1087117D01*
X1250689D01*
X1253229D01*
X1255768Y1084578D01*
Y1082039D01*
X1253229Y1079500D01*
X1248150D01*
X1245611Y1082039D01*
X1351280Y1515105D02*
Y1502409D01*
X1353819Y1499870D01*
X1358898D01*
X1361437Y1502409D01*
Y1515105D01*
X1376672Y1499870D02*
X1366515D01*
X1376672Y1510027D01*
Y1512566D01*
X1374133Y1515105D01*
X1369054D01*
X1366515Y1512566D01*
X1262380Y888492D02*
Y903727D01*
X1269997D01*
X1272537Y901188D01*
Y896109D01*
X1269997Y893570D01*
X1262380D01*
X1267458D02*
X1272537Y888492D01*
X1287772D02*
X1277615D01*
X1287772Y898649D01*
Y901188D01*
X1285233Y903727D01*
X1280154D01*
X1277615Y901188D01*
X1303007Y888492D02*
X1292850D01*
X1303007Y898649D01*
Y901188D01*
X1300468Y903727D01*
X1295389D01*
X1292850Y901188D01*
X1262888Y818642D02*
Y833877D01*
X1270506D01*
X1273045Y831338D01*
Y826260D01*
X1270506Y823720D01*
X1262888D01*
X1267966D02*
X1273045Y818642D01*
X1288280D02*
X1278123D01*
X1288280Y828799D01*
Y831338D01*
X1285741Y833877D01*
X1280662D01*
X1278123Y831338D01*
X1293358Y818642D02*
X1298436D01*
X1295897D01*
Y833877D01*
X1293358Y831338D01*
X1149096Y902970D02*
Y918205D01*
X1156713D01*
X1159253Y915666D01*
Y910587D01*
X1156713Y908048D01*
X1149096D01*
X1154174D02*
X1159253Y902970D01*
X1174488D02*
X1164331D01*
X1174488Y913127D01*
Y915666D01*
X1171949Y918205D01*
X1166870D01*
X1164331Y915666D01*
X1179566D02*
X1182105Y918205D01*
X1187184D01*
X1189723Y915666D01*
Y905509D01*
X1187184Y902970D01*
X1182105D01*
X1179566Y905509D01*
Y915666D01*
X2184146Y1359916D02*
Y1375151D01*
X2191763D01*
X2194303Y1372612D01*
Y1367534D01*
X2191763Y1364994D01*
X2184146D01*
X2189224D02*
X2194303Y1359916D01*
X2199381D02*
X2204459D01*
X2201920D01*
Y1375151D01*
X2199381Y1372612D01*
X2212077D02*
X2214616Y1375151D01*
X2219695D01*
X2222234Y1372612D01*
Y1370073D01*
X2219695Y1367534D01*
X2222234Y1364994D01*
Y1362455D01*
X2219695Y1359916D01*
X2214616D01*
X2212077Y1362455D01*
Y1364994D01*
X2214616Y1367534D01*
X2212077Y1370073D01*
Y1372612D01*
X2214616Y1367534D02*
X2219695D01*
X2242058Y1359916D02*
Y1375151D01*
X2249675D01*
X2252215Y1372612D01*
Y1367534D01*
X2249675Y1364994D01*
X2242058D01*
X2247136D02*
X2252215Y1359916D01*
X2257293D02*
X2262371D01*
X2259832D01*
Y1375151D01*
X2257293Y1372612D01*
X2269989Y1375151D02*
X2280146D01*
Y1372612D01*
X2269989Y1362455D01*
Y1359916D01*
X2392680Y989838D02*
Y1005073D01*
X2400298D01*
X2402837Y1002534D01*
Y997456D01*
X2400298Y994916D01*
X2392680D01*
X2397758D02*
X2402837Y989838D01*
X2407915D02*
X2412993D01*
X2410454D01*
Y1005073D01*
X2407915Y1002534D01*
X2420611D02*
X2423150Y1005073D01*
X2428228D01*
X2430768Y1002534D01*
Y999995D01*
X2428228Y997456D01*
X2425689D01*
X2428228D01*
X2430768Y994916D01*
Y992377D01*
X2428228Y989838D01*
X2423150D01*
X2420611Y992377D01*
X2342388Y990092D02*
Y1005327D01*
X2350005D01*
X2352545Y1002788D01*
Y997710D01*
X2350005Y995170D01*
X2342388D01*
X2347466D02*
X2352545Y990092D01*
X2357623D02*
X2362701D01*
X2360162D01*
Y1005327D01*
X2357623Y1002788D01*
X2380476Y990092D02*
X2370319D01*
X2380476Y1000249D01*
Y1002788D01*
X2377937Y1005327D01*
X2372858D01*
X2370319Y1002788D01*
X2291588Y990092D02*
Y1005327D01*
X2299205D01*
X2301745Y1002788D01*
Y997710D01*
X2299205Y995170D01*
X2291588D01*
X2296666D02*
X2301745Y990092D01*
X2306823D02*
X2311901D01*
X2309362D01*
Y1005327D01*
X2306823Y1002788D01*
X2319519Y990092D02*
X2324597D01*
X2322058D01*
Y1005327D01*
X2319519Y1002788D01*
X2240788Y990092D02*
Y1005327D01*
X2248405D01*
X2250945Y1002788D01*
Y997710D01*
X2248405Y995170D01*
X2240788D01*
X2245866D02*
X2250945Y990092D01*
X2256023D02*
X2261101D01*
X2258562D01*
Y1005327D01*
X2256023Y1002788D01*
X2268719D02*
X2271258Y1005327D01*
X2276337D01*
X2278876Y1002788D01*
Y992631D01*
X2276337Y990092D01*
X2271258D01*
X2268719Y992631D01*
Y1002788D01*
X2189988Y990092D02*
Y1005327D01*
X2197605D01*
X2200145Y1002788D01*
Y997710D01*
X2197605Y995170D01*
X2189988D01*
X2195066D02*
X2200145Y990092D01*
X2205223Y992631D02*
X2207762Y990092D01*
X2212841D01*
X2215380Y992631D01*
Y1002788D01*
X2212841Y1005327D01*
X2207762D01*
X2205223Y1002788D01*
Y1000249D01*
X2207762Y997710D01*
X2215380D01*
X1355344Y1034796D02*
Y1050031D01*
X1362961D01*
X1365501Y1047492D01*
Y1042413D01*
X1362961Y1039874D01*
X1355344D01*
X1360422D02*
X1365501Y1034796D01*
X1370579Y1047492D02*
X1373118Y1050031D01*
X1378197D01*
X1380736Y1047492D01*
Y1044953D01*
X1378197Y1042413D01*
X1380736Y1039874D01*
Y1037335D01*
X1378197Y1034796D01*
X1373118D01*
X1370579Y1037335D01*
Y1039874D01*
X1373118Y1042413D01*
X1370579Y1044953D01*
Y1047492D01*
X1373118Y1042413D02*
X1378197D01*
X1394804Y1032383D02*
Y1047617D01*
X1402422D01*
X1404961Y1045078D01*
Y1040000D01*
X1402422Y1037461D01*
X1394804D01*
X1399883D02*
X1404961Y1032383D01*
X1410039Y1047617D02*
X1420196D01*
Y1045078D01*
X1410039Y1034922D01*
Y1032383D01*
X1439804D02*
Y1047617D01*
X1447422D01*
X1449961Y1045078D01*
Y1040000D01*
X1447422Y1037461D01*
X1439804D01*
X1444883D02*
X1449961Y1032383D01*
X1465196Y1047617D02*
X1460117Y1045078D01*
X1455039Y1040000D01*
Y1034922D01*
X1457578Y1032383D01*
X1462657D01*
X1465196Y1034922D01*
Y1037461D01*
X1462657Y1040000D01*
X1455039D01*
X1500378Y1034796D02*
Y1050031D01*
X1507995D01*
X1510535Y1047492D01*
Y1042413D01*
X1507995Y1039874D01*
X1500378D01*
X1505456D02*
X1510535Y1034796D01*
X1525770Y1050031D02*
X1515613D01*
Y1042413D01*
X1520691Y1044953D01*
X1523231D01*
X1525770Y1042413D01*
Y1037335D01*
X1523231Y1034796D01*
X1518152D01*
X1515613Y1037335D01*
X1550416Y1034796D02*
Y1050031D01*
X1558033D01*
X1560573Y1047492D01*
Y1042413D01*
X1558033Y1039874D01*
X1550416D01*
X1555494D02*
X1560573Y1034796D01*
X1573269D02*
Y1050031D01*
X1565651Y1042413D01*
X1575808D01*
X1600200Y1034796D02*
Y1050031D01*
X1607818D01*
X1610357Y1047492D01*
Y1042413D01*
X1607818Y1039874D01*
X1600200D01*
X1605278D02*
X1610357Y1034796D01*
X1615435Y1047492D02*
X1617974Y1050031D01*
X1623053D01*
X1625592Y1047492D01*
Y1044953D01*
X1623053Y1042413D01*
X1620513D01*
X1623053D01*
X1625592Y1039874D01*
Y1037335D01*
X1623053Y1034796D01*
X1617974D01*
X1615435Y1037335D01*
X1634804Y1032383D02*
Y1047617D01*
X1642422D01*
X1644961Y1045078D01*
Y1040000D01*
X1642422Y1037461D01*
X1634804D01*
X1639883D02*
X1644961Y1032383D01*
X1660196D02*
X1650039D01*
X1660196Y1042539D01*
Y1045078D01*
X1657657Y1047617D01*
X1652578D01*
X1650039Y1045078D01*
X1682343Y1032383D02*
Y1047617D01*
X1689961D01*
X1692500Y1045078D01*
Y1040000D01*
X1689961Y1037461D01*
X1682343D01*
X1687422D02*
X1692500Y1032383D01*
X1697578D02*
X1702657D01*
X1700118D01*
Y1047617D01*
X1697578Y1045078D01*
X2232914Y1437127D02*
Y1421892D01*
X2243071D01*
X2258306Y1437127D02*
X2248149D01*
Y1421892D01*
X2258306D01*
X2248149Y1429509D02*
X2253227D01*
X2263384Y1437127D02*
Y1421892D01*
X2271002D01*
X2273541Y1424431D01*
Y1434588D01*
X2271002Y1437127D01*
X2263384D01*
X2288776D02*
X2278619D01*
Y1429509D01*
X2283698Y1432049D01*
X2286237D01*
X2288776Y1429509D01*
Y1424431D01*
X2286237Y1421892D01*
X2281158D01*
X2278619Y1424431D01*
X1394968Y845561D02*
Y830326D01*
X1405125D01*
X1420360Y845561D02*
X1410203D01*
Y830326D01*
X1420360D01*
X1410203Y837943D02*
X1415281D01*
X1425438Y845561D02*
Y830326D01*
X1433056D01*
X1435595Y832865D01*
Y843022D01*
X1433056Y845561D01*
X1425438D01*
X1448291Y830326D02*
Y845561D01*
X1440673Y837943D01*
X1450830D01*
X1458214Y845053D02*
Y829818D01*
X1468371D01*
X1483606Y845053D02*
X1473449D01*
Y829818D01*
X1483606D01*
X1473449Y837436D02*
X1478527D01*
X1488684Y845053D02*
Y829818D01*
X1496302D01*
X1498841Y832357D01*
Y842514D01*
X1496302Y845053D01*
X1488684D01*
X1503919Y842514D02*
X1506458Y845053D01*
X1511537D01*
X1514076Y842514D01*
Y839975D01*
X1511537Y837436D01*
X1508998D01*
X1511537D01*
X1514076Y834896D01*
Y832357D01*
X1511537Y829818D01*
X1506458D01*
X1503919Y832357D01*
X1523238Y844799D02*
Y829564D01*
X1533395D01*
X1548630Y844799D02*
X1538473D01*
Y829564D01*
X1548630D01*
X1538473Y837181D02*
X1543551D01*
X1553708Y844799D02*
Y829564D01*
X1561326D01*
X1563865Y832103D01*
Y842260D01*
X1561326Y844799D01*
X1553708D01*
X1579100Y829564D02*
X1568943D01*
X1579100Y839721D01*
Y842260D01*
X1576561Y844799D01*
X1571482D01*
X1568943Y842260D01*
X1589278Y844799D02*
Y829564D01*
X1599435D01*
X1614670Y844799D02*
X1604513D01*
Y829564D01*
X1614670D01*
X1604513Y837181D02*
X1609591D01*
X1619748Y844799D02*
Y829564D01*
X1627366D01*
X1629905Y832103D01*
Y842260D01*
X1627366Y844799D01*
X1619748D01*
X1634983Y829564D02*
X1640062D01*
X1637522D01*
Y844799D01*
X1634983Y842260D01*
X943353Y1329939D02*
X938274D01*
X940814D01*
Y1317243D01*
X938274Y1314704D01*
X935735D01*
X933196Y1317243D01*
X950970Y1314704D02*
X956049D01*
X958588Y1317243D01*
Y1322321D01*
X956049Y1324861D01*
X950970D01*
X948431Y1322321D01*
Y1317243D01*
X950970Y1314704D01*
X963666Y1324861D02*
Y1317243D01*
X966205Y1314704D01*
X973823D01*
Y1312165D01*
X971284Y1309626D01*
X968745D01*
X973823Y1314704D02*
Y1324861D01*
X978901Y1314704D02*
X986519D01*
X989058Y1317243D01*
X986519Y1319782D01*
X981440D01*
X978901Y1322321D01*
X981440Y1324861D01*
X989058D01*
X996675Y1327400D02*
Y1324861D01*
X994136D01*
X999215D01*
X996675D01*
Y1317243D01*
X999215Y1314704D01*
X1006832D02*
X1011910D01*
X1009371D01*
Y1324861D01*
X1006832D01*
X1029685D02*
X1022067D01*
X1019528Y1322321D01*
Y1317243D01*
X1022067Y1314704D01*
X1029685D01*
X1034763D02*
Y1329939D01*
Y1319782D02*
X1042381Y1324861D01*
X1034763Y1319782D02*
X1042381Y1314704D01*
X1318511Y873247D02*
X1313432D01*
X1315972D01*
Y860551D01*
X1313432Y858012D01*
X1310893D01*
X1308354Y860551D01*
X1333746Y858012D02*
X1323589D01*
X1333746Y868169D01*
Y870708D01*
X1331207Y873247D01*
X1326128D01*
X1323589Y870708D01*
X1296667Y994152D02*
X1294128Y996691D01*
X1289049D01*
X1286510Y994152D01*
Y983995D01*
X1289049Y981456D01*
X1294128D01*
X1296667Y983995D01*
X1309363Y981456D02*
Y996691D01*
X1301745Y989073D01*
X1311902D01*
X1247137Y992120D02*
X1244597Y994659D01*
X1239519D01*
X1236980Y992120D01*
Y981963D01*
X1239519Y979424D01*
X1244597D01*
X1247137Y981963D01*
X1252215Y992120D02*
X1254754Y994659D01*
X1259833D01*
X1262372Y992120D01*
Y989581D01*
X1259833Y987041D01*
X1257293D01*
X1259833D01*
X1262372Y984502D01*
Y981963D01*
X1259833Y979424D01*
X1254754D01*
X1252215Y981963D01*
X1198881Y991559D02*
X1196342Y994098D01*
X1191263D01*
X1188724Y991559D01*
Y981402D01*
X1191263Y978863D01*
X1196342D01*
X1198881Y981402D01*
X1214116Y978863D02*
X1203959D01*
X1214116Y989019D01*
Y991559D01*
X1211577Y994098D01*
X1206498D01*
X1203959Y991559D01*
X1291587Y1177286D02*
X1289048Y1179825D01*
X1283969D01*
X1281430Y1177286D01*
Y1167129D01*
X1283969Y1164590D01*
X1289048D01*
X1291587Y1167129D01*
X1296665Y1164590D02*
X1301743D01*
X1299204D01*
Y1179825D01*
X1296665Y1177286D01*
X2443344Y1300831D02*
Y1290835D01*
X2448342D01*
X2450008Y1292501D01*
Y1294167D01*
X2448342Y1295833D01*
X2443344D01*
X2448342D01*
X2450008Y1297499D01*
Y1299165D01*
X2448342Y1300831D01*
X2443344D01*
X2453340D02*
X2460005D01*
X2456673D01*
Y1290835D01*
X2463337Y1289169D02*
X2470002D01*
X2473334Y1300831D02*
Y1290835D01*
Y1295833D01*
X2479998D01*
Y1300831D01*
Y1290835D01*
X2484997Y1297499D02*
X2488329D01*
X2489995Y1295833D01*
Y1290835D01*
X2484997D01*
X2483331Y1292501D01*
X2484997Y1294167D01*
X2489995D01*
X2493327Y1297499D02*
Y1292501D01*
X2494994Y1290835D01*
X2499992D01*
Y1297499D01*
X2504990Y1299165D02*
Y1297499D01*
X2503324D01*
X2506656D01*
X2504990D01*
Y1292501D01*
X2506656Y1290835D01*
X2334181Y1178332D02*
Y1168335D01*
X2339179D01*
X2340845Y1170001D01*
Y1171667D01*
X2339179Y1173333D01*
X2334181D01*
X2339179D01*
X2340845Y1174999D01*
Y1176665D01*
X2339179Y1178332D01*
X2334181D01*
X2344177D02*
X2350842D01*
X2347510D01*
Y1168335D01*
X2354174Y1166668D02*
X2360839D01*
X2370836Y1176665D02*
X2369169Y1178332D01*
X2365837D01*
X2364171Y1176665D01*
Y1170001D01*
X2365837Y1168335D01*
X2369169D01*
X2370836Y1170001D01*
Y1173333D01*
X2367503D01*
X2375834Y1174999D02*
X2379166D01*
X2380832Y1173333D01*
Y1168335D01*
X2375834D01*
X2374168Y1170001D01*
X2375834Y1171667D01*
X2380832D01*
X2384164Y1174999D02*
Y1170001D01*
X2385831Y1168335D01*
X2390829D01*
Y1174999D01*
X2400826D02*
X2395827D01*
X2394161Y1173333D01*
Y1170001D01*
X2395827Y1168335D01*
X2400826D01*
X2404158Y1178332D02*
Y1168335D01*
Y1173333D01*
X2405824Y1174999D01*
X2409156D01*
X2410823Y1173333D01*
Y1168335D01*
X2419153D02*
X2415821D01*
X2414155Y1170001D01*
Y1173333D01*
X2415821Y1174999D01*
X2419153D01*
X2420819Y1173333D01*
Y1171667D01*
X2414155D01*
X2520847Y1175832D02*
Y1165835D01*
X2525845D01*
X2527511Y1167501D01*
Y1169167D01*
X2525845Y1170833D01*
X2520847D01*
X2525845D01*
X2527511Y1172499D01*
Y1174165D01*
X2525845Y1175832D01*
X2520847D01*
X2530844D02*
X2537508D01*
X2534176D01*
Y1165835D01*
X2540840Y1164168D02*
X2547505D01*
X2550837Y1175832D02*
Y1165835D01*
X2555836D01*
X2557502Y1167501D01*
Y1174165D01*
X2555836Y1175832D01*
X2550837D01*
X2560834Y1172499D02*
Y1165835D01*
Y1169167D01*
X2562500Y1170833D01*
X2564166Y1172499D01*
X2565832D01*
X2572497Y1165835D02*
X2575829D01*
X2577495Y1167501D01*
Y1170833D01*
X2575829Y1172499D01*
X2572497D01*
X2570831Y1170833D01*
Y1167501D01*
X2572497Y1165835D01*
X2580828D02*
X2584160D01*
X2582494D01*
Y1172499D01*
X2580828D01*
X2590824Y1174165D02*
Y1172499D01*
X2589158D01*
X2592490D01*
X2590824D01*
Y1167501D01*
X2592490Y1165835D01*
X2602487D02*
X2599155D01*
X2597489Y1167501D01*
Y1170833D01*
X2599155Y1172499D01*
X2602487D01*
X2604153Y1170833D01*
Y1169167D01*
X2597489D01*
X2446676Y1050832D02*
Y1040835D01*
X2451674D01*
X2453340Y1042501D01*
Y1044167D01*
X2451674Y1045833D01*
X2446676D01*
X2451674D01*
X2453340Y1047499D01*
Y1049165D01*
X2451674Y1050832D01*
X2446676D01*
X2456673D02*
X2463337D01*
X2460005D01*
Y1040835D01*
X2466669Y1039168D02*
X2473334D01*
X2476666Y1050832D02*
Y1040835D01*
X2481664D01*
X2483331Y1042501D01*
Y1044167D01*
X2481664Y1045833D01*
X2476666D01*
X2481664D01*
X2483331Y1047499D01*
Y1049165D01*
X2481664Y1050832D01*
X2476666D01*
X2488329Y1047499D02*
X2491661D01*
X2493327Y1045833D01*
Y1040835D01*
X2488329D01*
X2486663Y1042501D01*
X2488329Y1044167D01*
X2493327D01*
X2496660Y1040835D02*
X2501658D01*
X2503324Y1042501D01*
X2501658Y1044167D01*
X2498326D01*
X2496660Y1045833D01*
X2498326Y1047499D01*
X2503324D01*
X2430847Y1175832D02*
Y1165835D01*
X2435845D01*
X2437511Y1167501D01*
Y1169167D01*
X2435845Y1170833D01*
X2430847D01*
X2435845D01*
X2437511Y1172499D01*
Y1174165D01*
X2435845Y1175832D01*
X2430847D01*
X2440844D02*
X2447508D01*
X2444176D01*
Y1165835D01*
X2450840Y1164168D02*
X2457505D01*
X2467502Y1175832D02*
X2460837D01*
Y1165835D01*
X2467502D01*
X2460837Y1170833D02*
X2464169D01*
X2470834Y1165835D02*
Y1172499D01*
X2475832D01*
X2477498Y1170833D01*
Y1165835D01*
X2482497Y1174165D02*
Y1172499D01*
X2480831D01*
X2484163D01*
X2482497D01*
Y1167501D01*
X2484163Y1165835D01*
X2489161Y1172499D02*
Y1165835D01*
Y1169167D01*
X2490827Y1170833D01*
X2492494Y1172499D01*
X2494160D01*
X2504156Y1165835D02*
X2500824D01*
X2499158Y1167501D01*
Y1170833D01*
X2500824Y1172499D01*
X2504156D01*
X2505823Y1170833D01*
Y1169167D01*
X2499158D01*
X2509155Y1172499D02*
Y1165835D01*
Y1169167D01*
X2510821Y1170833D01*
X2512487Y1172499D01*
X2514153D01*
D17*
X2612500Y1340000D02*
G03*
X2562500Y1390000I-50000J0D01*
G01*
X2462500Y940000D02*
G03*
X2412500Y890000I0J-50000D01*
G01*
X2562500Y940000D02*
G03*
X2612500Y990000I0J50000D01*
G01*
X1062500Y790000D02*
G03*
X1112500Y740000I50000J0D01*
G01*
X862500Y990000D02*
G03*
X912500Y940000I50000J0D01*
G01*
X2362500Y740000D02*
G03*
X2412500Y790000I0J50000D01*
G01*
Y1440000D02*
G03*
X2462500Y1390000I50000J0D01*
G01*
X2412500Y1540000D02*
G03*
X2362500Y1590000I-50000J0D01*
G01*
X1012500Y1390000D02*
G03*
X1062500Y1440000I0J50000D01*
G01*
X912500Y1390000D02*
G03*
X862500Y1340000I0J-50000D01*
G01*
X1062500Y890000D02*
G03*
X1012500Y940000I-50000J0D01*
G01*
X1112500Y1590000D02*
G03*
X1062500Y1540000I0J-50000D01*
G01*
X1063600Y790410D02*
G03*
X1113600Y740410I50000J0D01*
G01*
X863600Y990410D02*
G03*
X913600Y940410I50000J0D01*
G01*
X2613600Y1340410D02*
G03*
X2563600Y1390410I-50000J0D01*
G01*
X2413600Y1440410D02*
G03*
X2463600Y1390410I50000J0D01*
G01*
Y940410D02*
G03*
X2413600Y890410I0J-50000D01*
G01*
X2363600Y740410D02*
G03*
X2413600Y790410I0J50000D01*
G01*
Y1540410D02*
G03*
X2363600Y1590410I-50000J0D01*
G01*
X1113600D02*
G03*
X1063600Y1540410I0J-50000D01*
G01*
X1013600Y1390410D02*
G03*
X1063600Y1440410I0J50000D01*
G01*
X913600Y1390410D02*
G03*
X863600Y1340410I0J-50000D01*
G01*
X1063600Y890410D02*
G03*
X1013600Y940410I-50000J0D01*
G01*
X2612500Y990000D02*
Y1340000D01*
X912500Y940000D02*
X1012500D01*
X1112500Y740000D02*
X2362500D01*
X862500Y990000D02*
Y1340000D01*
X1062500Y790000D02*
Y890000D01*
Y1440000D02*
Y1540000D01*
X1112500Y1590000D02*
X2362500D01*
X2462500Y1390000D02*
X2562500D01*
X2462500Y940000D02*
X2562500D01*
X2412500Y1440000D02*
Y1540000D01*
Y790000D02*
Y890000D01*
X912500Y1390000D02*
X1012500D01*
X1063600Y1440410D02*
Y1540410D01*
X1113600Y1590410D02*
X2363600D01*
X863600Y990410D02*
Y1340410D01*
X913600Y1390410D02*
X1013600D01*
X2463600Y940410D02*
X2613600D01*
X1113600Y740410D02*
X2363600D01*
X2613600Y940410D02*
Y1340410D01*
X913600Y940410D02*
X1013600D01*
X2413600Y790410D02*
Y890410D01*
X2463600Y1390410D02*
X2563600D01*
X2413600Y1440410D02*
Y1540410D01*
X1063600Y790410D02*
Y890410D01*
D18*
X862532Y740000D02*
G03*
X862532Y740000I-32J0D01*
G01*
D02*
G03*
X862532Y740000I-32J0D01*
G01*
M02*
