G04*
G04 #@! TF.GenerationSoftware,Altium Limited,Altium Designer,22.7.1 (60)*
G04*
G04 Layer_Physical_Order=1*
G04 Layer_Color=255*
%FSLAX44Y44*%
%MOMM*%
G71*
G04*
G04 #@! TF.SameCoordinates,7684CF66-3EF2-496F-B3A4-9C416311D090*
G04*
G04*
G04 #@! TF.FilePolarity,Positive*
G04*
G01*
G75*
%ADD16C,0.2540*%
%ADD17C,0.0127*%
%ADD18C,0.0064*%
%ADD19R,1.0000X1.4000*%
%ADD20R,1.5000X1.7500*%
%ADD21R,1.4000X1.0000*%
%ADD22R,0.7000X0.4000*%
%ADD23R,1.9000X2.4500*%
%ADD24R,1.4500X1.1500*%
%ADD25O,2.5000X0.7000*%
%ADD26R,1.5700X1.1400*%
%ADD27R,1.8034X1.1176*%
%ADD28R,0.9000X2.4500*%
%ADD29R,1.9200X1.2200*%
%ADD57R,1.5200X1.5200*%
%ADD58C,1.5200*%
%ADD59C,1.0200*%
%ADD60C,1.5750*%
%ADD61C,1.6500*%
%ADD62C,1.5240*%
%ADD63O,1.3080X2.6160*%
%ADD64C,2.2860*%
%ADD65C,1.7780*%
%ADD66C,2.5500*%
%ADD67C,1.2500*%
%ADD68C,3.4000*%
%ADD69C,1.1000*%
%ADD70R,1.6500X1.6500*%
%ADD71C,0.6000*%
%ADD72C,1.2700*%
D16*
X1816100Y1168400D02*
X1854200Y1206500D01*
X1294032Y1168400D02*
X1816100D01*
X1854200Y1206500D02*
Y1366520D01*
X1821180Y1158240D02*
X1864360Y1201420D01*
Y1418372D02*
X1864956Y1418968D01*
Y1422996D01*
X1864360Y1201420D02*
Y1418372D01*
X1864956Y1422996D02*
X1866900Y1424940D01*
X1524500Y1017500D02*
X1525000Y1017000D01*
Y1000000D02*
Y1017000D01*
X1333500Y1158240D02*
X1821180D01*
X1299624Y1129224D02*
X1304484D01*
X1295400Y1125000D02*
X1299624Y1129224D01*
X1304484D02*
X1333500Y1158240D01*
X2110740Y914400D02*
Y1442720D01*
X2070100Y873760D02*
X2110740Y914400D01*
X2105660Y1447800D02*
X2110740Y1442720D01*
X2105660Y916940D02*
Y1439744D01*
X2051884Y1493520D02*
X2105660Y1439744D01*
X2072640Y883920D02*
X2105660Y916940D01*
X2067996Y894080D02*
X2095500Y921584D01*
X2100580Y919480D02*
Y1437640D01*
X2052320Y1485900D02*
X2100580Y1437640D01*
X2070100Y889000D02*
X2100580Y919480D01*
X2051268Y1478280D02*
X2095500Y1434048D01*
Y921584D02*
Y1434048D01*
X1816100Y1536700D02*
X1854200Y1498600D01*
X2053988D01*
X1726100Y1536700D02*
X1784520Y1478280D01*
X2051268D01*
X1756100Y1536700D02*
X1806900Y1485900D01*
X2052320D01*
X1829280Y1493520D02*
X2051884D01*
X1786100Y1536700D02*
X1829280Y1493520D01*
X2104788Y1447800D02*
X2105660D01*
X2053988Y1498600D02*
X2104788Y1447800D01*
X1720452Y894080D02*
X2067996D01*
X1927860Y883920D02*
X2072640D01*
X1729740Y889000D02*
X2070100D01*
X1700132Y873760D02*
X1720452Y894080D01*
X1714500Y873760D02*
X1729740Y889000D01*
X1917700Y873760D02*
X1927860Y883920D01*
X1689100Y873760D02*
X1700132D01*
X1814156Y783056D02*
X1816100Y785000D01*
X1808988Y783056D02*
X1814156D01*
X1532500Y782500D02*
X1808432D01*
X1808988Y783056D01*
X1866900Y784860D02*
X1912620Y830580D01*
X2118360D01*
X1917700Y784860D02*
X1958340Y825500D01*
X2120900D01*
X1943100Y784860D02*
X1978660Y820420D01*
X2123440D01*
X1892300Y871220D02*
X1925320Y838200D01*
X2115780D01*
X1996440Y843280D02*
X2113676D01*
X1968500Y871220D02*
X1996440Y843280D01*
X2113676D02*
X2222500Y952104D01*
X2118360Y830580D02*
X2215120Y927340D01*
X2297340D01*
X2120900Y825500D02*
X2217660Y922260D01*
X2220200Y917180D02*
X2349680D01*
X2377500Y945000D01*
X2217660Y922260D02*
X2299760D01*
X2123440Y820420D02*
X2220200Y917180D01*
X2299760Y922260D02*
X2327500Y950000D01*
X2210000Y932420D02*
X2210000D01*
X2115780Y838200D02*
X2210000Y932420D01*
X1673860Y1435100D02*
X1960880D01*
X1663700Y1424940D02*
X1673860Y1435100D01*
X1672115Y1440539D02*
X1694257D01*
X1689100Y1452880D02*
X1696720Y1445260D01*
X1694616Y1440180D02*
X1978869D01*
X1694257Y1440539D02*
X1694616Y1440180D01*
X1696720Y1445260D02*
X1985408D01*
X1978869Y1440180D02*
X1993900Y1425149D01*
X1277620Y1440180D02*
X1671756D01*
X1960880Y1435100D02*
X2016760Y1379220D01*
X1671756Y1440180D02*
X1672115Y1440539D01*
X1985408Y1445260D02*
X2021840Y1408828D01*
X2011680Y1068288D02*
X2016760Y1073368D01*
Y1379220D01*
X2011680Y1066800D02*
Y1068288D01*
X1950720Y1066800D02*
X1960880Y1056640D01*
X2015888D01*
X2021840Y1062592D01*
Y1408828D01*
X1993900Y1422400D02*
Y1425149D01*
X1206500Y1511300D02*
X1277620Y1440180D01*
X1714500Y1017500D02*
X1717040Y1020040D01*
Y1038860D01*
X1608778Y812570D02*
X1695500Y899292D01*
Y1017500D01*
X2352500Y1127500D02*
X2364750D01*
X2365100Y1127150D01*
X1225550Y893050D02*
Y977900D01*
X1195400Y862900D02*
X1225550Y893050D01*
Y977900D02*
X1270000Y1022350D01*
Y1144368D02*
X1294032Y1168400D01*
X1270000Y1022350D02*
Y1144368D01*
X1295400Y876300D02*
Y939000D01*
Y826650D02*
Y876300D01*
X1314620D02*
X1366000Y824920D01*
X1295400Y876300D02*
X1314620D01*
X1366000Y800000D02*
Y824920D01*
X1272000Y784250D02*
X1287750Y800000D01*
X1329000D01*
X1270000Y784250D02*
X1272000D01*
Y803250D02*
X1295400Y826650D01*
X1270000Y803250D02*
X1272000D01*
X1244600Y896100D02*
X1267600Y873100D01*
X1244600Y896100D02*
Y935228D01*
X1267600Y873100D02*
X1269600D01*
X1294500Y966900D02*
Y984250D01*
X1277454Y994625D02*
X1289050D01*
Y996950D01*
Y989700D02*
Y994625D01*
Y989700D02*
X1294500Y984250D01*
X1289050Y996950D02*
X1294500Y1002400D01*
Y1022350D01*
X1248029Y965200D02*
X1277454Y994625D01*
X1244600Y965200D02*
X1248029D01*
X1294500Y966900D02*
X1295400Y966000D01*
X1170000Y837500D02*
Y932398D01*
X1199270Y961080D02*
X1201420D01*
X1192580Y954390D02*
X1199270Y961080D01*
X1191992Y954390D02*
X1192580D01*
X1170000Y932398D02*
X1191992Y954390D01*
X1201420Y961080D02*
X1203570D01*
X1223711Y1035050D02*
X1245500D01*
X1208000Y1019339D02*
X1223711Y1035050D01*
X1208000Y965510D02*
Y1019339D01*
X1203570Y961080D02*
X1208000Y965510D01*
X1294500Y1035050D02*
X1303500D01*
X1310810Y1042360D01*
X1295400Y1090326D02*
X1310810Y1074916D01*
X1295400Y1090326D02*
Y1125000D01*
X1310810Y1042360D02*
Y1074916D01*
X1341250Y1268250D02*
Y1362500D01*
X1341750Y1363000D01*
X1340750Y1267750D02*
X1341250Y1268250D01*
X1475000Y1018000D02*
Y1035000D01*
X1474500Y1017500D02*
X1475000Y1018000D01*
X1442500Y1467500D02*
Y1486440D01*
X1440370Y1488570D02*
X1442500Y1486440D01*
X2294751Y1400000D02*
X2299751Y1395000D01*
X2248000Y1400000D02*
X2294751D01*
X2299751Y1395000D02*
X2302500D01*
X2292000Y1407000D02*
X2302500Y1417500D01*
X2248000Y1407000D02*
X2292000D01*
X2235000Y1384500D02*
X2275000Y1344500D01*
X2235000Y1384500D02*
Y1400000D01*
X2275000Y1342500D02*
Y1344500D01*
X2198000Y1373888D02*
X2230382Y1406270D01*
X2234270D02*
X2235000Y1407000D01*
X2198000Y1342500D02*
Y1373888D01*
X2230382Y1406270D02*
X2234270D01*
X2237500Y1342500D02*
X2256000D01*
X2217000D02*
X2237500D01*
X2217000D02*
X2217500Y1342000D01*
X1625000Y997500D02*
Y1017000D01*
X1624500Y1017500D02*
X1625000Y1017000D01*
X1477818Y812880D02*
X1510320Y845382D01*
X1498600Y939800D02*
X1499380Y939020D01*
X1510160Y961451D02*
X1510320Y961291D01*
Y845382D02*
Y961291D01*
X1505000Y810000D02*
X1532500Y782500D01*
X2234550Y1193150D02*
X2235200Y1193800D01*
X2508750Y1251250D02*
X2510000Y1252500D01*
X2495000Y1251250D02*
X2508750D01*
X2565388Y1252500D02*
X2597500Y1220388D01*
X2510000Y1252500D02*
X2565388D01*
X2597500Y1082112D02*
Y1220388D01*
X2489888Y974500D02*
X2597500Y1082112D01*
X2400000Y974500D02*
X2489888D01*
X2325000Y1007500D02*
X2336572Y1019072D01*
X2325000Y985000D02*
Y1007500D01*
X2336572Y1019072D02*
X2477178D01*
X2488770Y1008730D02*
X2495000Y1002500D01*
X2487520Y1008730D02*
X2488770D01*
X2495000Y1001250D02*
Y1002500D01*
X2477178Y1019072D02*
X2487520Y1008730D01*
X2319920Y1021176D02*
X2369934Y1071190D01*
X2515179D01*
X2572739Y1128750D01*
X2585000D01*
X2317333Y1052260D02*
X2367413Y1102340D01*
X2455326D01*
X2479236Y1126250D01*
X2495000D01*
X2271944Y1052260D02*
X2317333D01*
X2269840Y1057340D02*
X2315228D01*
X2384138Y1126250D01*
X2227580Y1007896D02*
X2271944Y1052260D01*
X2325000Y985000D02*
X2333750Y976250D01*
X2319920Y984320D02*
Y1021176D01*
X2310300Y974700D02*
X2319920Y984320D01*
X2222500Y1010000D02*
X2269840Y1057340D01*
X2384138Y1126250D02*
X2407500D01*
X2227580Y979360D02*
Y1007896D01*
X2450000Y1240000D02*
Y1250150D01*
X2454000Y1254150D01*
X2450000Y1112500D02*
Y1123150D01*
X2454000Y1127150D01*
X2298700Y974700D02*
X2310300D01*
X2333750Y976250D02*
X2347950D01*
X2349500Y974700D01*
X2327500Y970000D02*
X2333750Y976250D01*
X2327500Y950000D02*
Y970000D01*
X2310300Y974700D02*
X2317500Y967500D01*
X2227580Y979360D02*
X2235970Y970970D01*
X2222500Y980000D02*
Y1010000D01*
X2235970Y970970D02*
X2244170D01*
X2230000Y965000D02*
X2235970Y970970D01*
X2230000Y952420D02*
Y965000D01*
X2244170Y970970D02*
X2247900Y974700D01*
X2215000Y972500D02*
X2222500Y980000D01*
X2377500Y962500D02*
X2389500Y974500D01*
X2400000D01*
X2377500Y945000D02*
Y962500D01*
X2297340Y927340D02*
X2317500Y947500D01*
Y967500D01*
X2222500Y952104D02*
Y965000D01*
X2210000Y932420D02*
X2230000Y952420D01*
X2215000Y972500D02*
X2222500Y965000D01*
X2199300Y972500D02*
X2215000D01*
X2197100Y974700D02*
X2199300Y972500D01*
X2197500Y947660D02*
Y955300D01*
X2400000Y947600D02*
Y955500D01*
X2399700Y947300D02*
X2400000Y947600D01*
X2350000Y947500D02*
Y955200D01*
X2349500Y955700D02*
X2350000Y955200D01*
X2298700Y948700D02*
Y955700D01*
X2297500Y947500D02*
X2298700Y948700D01*
X2247900Y947900D02*
Y955700D01*
X2247500Y947500D02*
X2247900Y947900D01*
X2197100Y955700D02*
X2197500Y955300D01*
X1505000Y820000D02*
X1549400Y864400D01*
Y939800D01*
X1505000Y810000D02*
Y820000D01*
X1452500Y815000D02*
X1455249D01*
X1457369Y812880D02*
X1459470D01*
X1455249Y815000D02*
X1457369Y812880D01*
X1587679Y812570D02*
X1590430D01*
X1585249Y815000D02*
X1587679Y812570D01*
X1522430Y813030D02*
X1523620Y811840D01*
X1519470Y813030D02*
X1522430D01*
X1582500Y815000D02*
X1585249D01*
X1517500Y815000D02*
X1519470Y813030D01*
X1590430Y812570D02*
X1591160Y811840D01*
X1575000Y1000000D02*
Y1017000D01*
X1574500Y1017500D02*
X1575000Y1017000D01*
X1669500Y1017500D02*
X1670000Y1018000D01*
X2270772Y1534172D02*
X2273300Y1536700D01*
X1696800Y1569300D02*
X1697500Y1570000D01*
X1696800Y1537400D02*
Y1569300D01*
X1696100Y1536700D02*
X1696800Y1537400D01*
X2077720Y941070D02*
X2078255Y940535D01*
X1924785D02*
X1925320Y941070D01*
X1464891Y1556341D02*
X1490149D01*
X1463870Y1555320D02*
X1464891Y1556341D01*
X1407391Y1553841D02*
X1408870Y1555320D01*
X1420370Y1468700D02*
Y1488570D01*
X1387649Y1553841D02*
X1407391D01*
X1179066Y1513335D02*
X1181100Y1511300D01*
X1295000Y1143400D02*
Y1155000D01*
X987862Y1222375D02*
X990600D01*
X1143000D02*
X1145187D01*
X1295000Y1143400D02*
X1295400Y1143000D01*
X1143000Y1089025D02*
X1145738D01*
X988562D02*
X990600D01*
X965050Y1130150D02*
X965200Y1130300D01*
X1523620Y818840D02*
X1525120D01*
X1421250Y938650D02*
X1422400Y939800D01*
X1420100D02*
X1421250Y938650D01*
X1519780Y815000D02*
X1523620Y818840D01*
X1388412Y817500D02*
X1392382Y813530D01*
X1517500Y815000D02*
X1519780D01*
X1523620Y811840D02*
Y811840D01*
Y811840D02*
X1525120D01*
X1392382Y813530D02*
X1396270D01*
X1459470Y812880D02*
X1460200Y812150D01*
X1396270Y813530D02*
X1397000Y812800D01*
X1225380Y1047750D02*
X1245500D01*
X1092200Y1054100D02*
X1092350Y1053950D01*
X1269600Y854100D02*
X1270000Y853700D01*
Y845000D02*
Y853700D01*
X1387500Y817500D02*
X1388412D01*
X1225380Y1022350D02*
X1245500D01*
X1201420Y944880D02*
X1202500Y943800D01*
Y932500D02*
Y943800D01*
X1427000Y1017500D02*
X1427500Y1018000D01*
Y1037500D01*
X1392353Y902113D02*
X1417310Y877157D01*
X1392353Y963047D02*
X1408000Y978693D01*
X1392353Y902113D02*
Y963047D01*
X1379500Y1017500D02*
X1380000Y1017000D01*
Y997500D02*
Y1017000D01*
X1505500Y966111D02*
X1510160Y961451D01*
X1604890Y812570D02*
X1608778D01*
X1605500Y875332D02*
Y1017500D01*
X1542738Y812570D02*
X1605500Y875332D01*
X1605660Y818840D02*
X1650500Y863680D01*
Y1017500D01*
X1539620Y818840D02*
X1560830Y840050D01*
Y970753D01*
X1604160Y811840D02*
X1604890Y812570D01*
X1604160Y818840D02*
X1605660D01*
X1538120Y811840D02*
X1538850Y812570D01*
X1542738D01*
X1538120Y818840D02*
X1539620D01*
X1555500Y976083D02*
X1560830Y970753D01*
X1555500Y976083D02*
Y1017500D01*
X1473200Y812150D02*
X1473930Y812880D01*
X1505500Y966111D02*
Y1017500D01*
X1473930Y812880D02*
X1477818D01*
X1455500Y948265D02*
X1461770Y941995D01*
Y829080D02*
Y941995D01*
X1455500Y948265D02*
Y1017500D01*
X1461770Y829080D02*
X1471700Y819150D01*
X1473200D01*
X1410000Y812800D02*
X1410730Y813530D01*
X1414618D01*
X1417310Y816222D01*
Y877157D01*
X1408000Y978693D02*
Y1017500D01*
X1408500Y819800D02*
X1410000D01*
X1360500Y867801D02*
Y1017500D01*
Y867801D02*
X1408500Y819800D01*
X1635000Y1537800D02*
X1636100Y1536700D01*
X1635000Y1537800D02*
Y1570000D01*
X2052320Y941070D02*
X2052410Y940980D01*
X1041400Y1054100D02*
X1041950Y1053550D01*
X964500Y1181800D02*
X965200Y1181100D01*
D17*
X2612500Y1340000D02*
G03*
X2562500Y1390000I-50000J0D01*
G01*
X2462500Y940000D02*
G03*
X2412500Y890000I0J-50000D01*
G01*
X2562500Y940000D02*
G03*
X2612500Y990000I0J50000D01*
G01*
X1062500Y790000D02*
G03*
X1112500Y740000I50000J0D01*
G01*
X862500Y990000D02*
G03*
X912500Y940000I50000J0D01*
G01*
X2362500Y740000D02*
G03*
X2412500Y790000I0J50000D01*
G01*
Y1440000D02*
G03*
X2462500Y1390000I50000J0D01*
G01*
X2412500Y1540000D02*
G03*
X2362500Y1590000I-50000J0D01*
G01*
X1012500Y1390000D02*
G03*
X1062500Y1440000I0J50000D01*
G01*
X912500Y1390000D02*
G03*
X862500Y1340000I0J-50000D01*
G01*
X1062500Y890000D02*
G03*
X1012500Y940000I-50000J0D01*
G01*
X1112500Y1590000D02*
G03*
X1062500Y1540000I0J-50000D01*
G01*
X1063600Y790410D02*
G03*
X1113600Y740410I50000J0D01*
G01*
X863600Y990410D02*
G03*
X913600Y940410I50000J0D01*
G01*
X2613600Y1340410D02*
G03*
X2563600Y1390410I-50000J0D01*
G01*
X2413600Y1440410D02*
G03*
X2463600Y1390410I50000J0D01*
G01*
Y940410D02*
G03*
X2413600Y890410I0J-50000D01*
G01*
X2363600Y740410D02*
G03*
X2413600Y790410I0J50000D01*
G01*
Y1540410D02*
G03*
X2363600Y1590410I-50000J0D01*
G01*
X1113600D02*
G03*
X1063600Y1540410I0J-50000D01*
G01*
X1013600Y1390410D02*
G03*
X1063600Y1440410I0J50000D01*
G01*
X913600Y1390410D02*
G03*
X863600Y1340410I0J-50000D01*
G01*
X1063600Y890410D02*
G03*
X1013600Y940410I-50000J0D01*
G01*
X2612500Y990000D02*
Y1340000D01*
X912500Y940000D02*
X1012500D01*
X1112500Y740000D02*
X2362500D01*
X862500Y990000D02*
Y1340000D01*
X1062500Y790000D02*
Y890000D01*
Y1440000D02*
Y1540000D01*
X1112500Y1590000D02*
X2362500D01*
X2462500Y1390000D02*
X2562500D01*
X2462500Y940000D02*
X2562500D01*
X2412500Y1440000D02*
Y1540000D01*
Y790000D02*
Y890000D01*
X912500Y1390000D02*
X1012500D01*
X1063600Y1440410D02*
Y1540410D01*
X1113600Y1590410D02*
X2363600D01*
X863600Y990410D02*
Y1340410D01*
X913600Y1390410D02*
X1013600D01*
X2463600Y940410D02*
X2613600D01*
X1113600Y740410D02*
X2363600D01*
X2613600Y940410D02*
Y1340410D01*
X913600Y940410D02*
X1013600D01*
X2413600Y790410D02*
Y890410D01*
X2463600Y1390410D02*
X2563600D01*
X2413600Y1440410D02*
Y1540410D01*
X1063600Y790410D02*
Y890410D01*
D18*
X862532Y740000D02*
G03*
X862532Y740000I-32J0D01*
G01*
D02*
G03*
X862532Y740000I-32J0D01*
G01*
D19*
X2275000Y1342500D02*
D03*
X2256000D02*
D03*
X2198000D02*
D03*
X2217000D02*
D03*
X1695500Y1017500D02*
D03*
X1714500D02*
D03*
X1669500D02*
D03*
X1650500D02*
D03*
X1427000D02*
D03*
X1408000D02*
D03*
X1455500D02*
D03*
X1474500D02*
D03*
X1379500D02*
D03*
X1360500D02*
D03*
X1624500D02*
D03*
X1605500D02*
D03*
X1574500D02*
D03*
X1555500D02*
D03*
X1524500D02*
D03*
X1505500D02*
D03*
D20*
X2495000Y1083750D02*
D03*
X2450000D02*
D03*
X2495000Y1001250D02*
D03*
X2450000D02*
D03*
X2495000Y1333750D02*
D03*
X2450000D02*
D03*
X2495000Y1251250D02*
D03*
X2450000D02*
D03*
X2585000Y1211250D02*
D03*
X2540000D02*
D03*
X2585000Y1128750D02*
D03*
X2540000D02*
D03*
X2495000Y1208750D02*
D03*
X2450000D02*
D03*
X2495000Y1126250D02*
D03*
X2450000D02*
D03*
X2407500Y1208750D02*
D03*
X2362500D02*
D03*
X2407500Y1126250D02*
D03*
X2362500D02*
D03*
D21*
X2349500Y955700D02*
D03*
Y974700D02*
D03*
X2400000Y955500D02*
D03*
Y974500D02*
D03*
X2298700Y974700D02*
D03*
Y955700D02*
D03*
X2247900D02*
D03*
Y974700D02*
D03*
X2197100Y955700D02*
D03*
Y974700D02*
D03*
X1269600Y854100D02*
D03*
X1270000Y803250D02*
D03*
Y784250D02*
D03*
X1269600Y873100D02*
D03*
D22*
X1591160Y818840D02*
D03*
Y811840D02*
D03*
X1525120Y818840D02*
D03*
X1460200Y819150D02*
D03*
X1397000Y819800D02*
D03*
X1525120Y811840D02*
D03*
X1460200Y812150D02*
D03*
X1397000Y812800D02*
D03*
X1604160Y811840D02*
D03*
Y818840D02*
D03*
X1473200Y812150D02*
D03*
Y819150D02*
D03*
X1410000Y812800D02*
D03*
Y819800D02*
D03*
X2248000Y1400000D02*
D03*
Y1407000D02*
D03*
X2235000Y1400000D02*
D03*
Y1407000D02*
D03*
X1538120Y818840D02*
D03*
Y811840D02*
D03*
D23*
X1420370Y1488570D02*
D03*
D24*
X1295400Y1143000D02*
D03*
Y1125000D02*
D03*
D25*
X1245500Y1047750D02*
D03*
Y1022350D02*
D03*
X1294500D02*
D03*
Y1035050D02*
D03*
Y1047750D02*
D03*
Y1060450D02*
D03*
X1245500Y1035050D02*
D03*
Y1060450D02*
D03*
D26*
X1201420Y944880D02*
D03*
Y961080D02*
D03*
D27*
X1244600Y965200D02*
D03*
Y935228D02*
D03*
D28*
X1440370Y1488570D02*
D03*
D29*
X1295400Y966000D02*
D03*
Y939000D02*
D03*
D57*
X1636100Y1536700D02*
D03*
D58*
X1666100D02*
D03*
X1696100D02*
D03*
X1726100D02*
D03*
X1756100D02*
D03*
X1786100D02*
D03*
X1816100D02*
D03*
X1846100D02*
D03*
D59*
X1858900Y1526900D02*
D03*
D60*
X2273300Y1508700D02*
D03*
Y1536700D02*
D03*
X1181100Y1511300D02*
D03*
Y1539300D02*
D03*
X2298700Y1508700D02*
D03*
Y1536700D02*
D03*
X1206500Y1511300D02*
D03*
Y1539300D02*
D03*
D61*
X2235200Y1193800D02*
D03*
Y1168400D02*
D03*
D62*
X2077720Y941070D02*
D03*
X1925320D02*
D03*
X1422400Y939800D02*
D03*
X1447800D02*
D03*
X1473200D02*
D03*
X1498600D02*
D03*
X1524000D02*
D03*
X1549400D02*
D03*
X1574800D02*
D03*
X1950720Y941070D02*
D03*
X1976120D02*
D03*
X2001520D02*
D03*
X2026920D02*
D03*
X2052320D02*
D03*
D63*
X1463870Y1555320D02*
D03*
X1408870D02*
D03*
D64*
X1143000Y1222375D02*
D03*
Y1089025D02*
D03*
X990600D02*
D03*
Y1222375D02*
D03*
D65*
X965200Y1130300D02*
D03*
X1092200Y1054100D02*
D03*
X965200Y1155700D02*
D03*
Y1181100D02*
D03*
X1066800Y1054100D02*
D03*
X1041400D02*
D03*
X1098550Y1231900D02*
D03*
X1035050D02*
D03*
X1098550Y1282700D02*
D03*
X1035050D02*
D03*
D66*
X1347500Y820000D02*
D03*
X1366000Y800000D02*
D03*
X1329000D02*
D03*
D67*
X1195400Y812100D02*
D03*
Y862900D02*
D03*
X1170000Y837500D02*
D03*
D68*
X2367500Y1495000D02*
D03*
Y835000D02*
D03*
X1107500D02*
D03*
Y1495000D02*
D03*
D69*
X1412870Y1520320D02*
D03*
X1459870D02*
D03*
D70*
X2235200Y1143000D02*
D03*
D71*
X1347500Y775000D02*
D03*
D72*
X2476500Y1221740D02*
D03*
X1854200Y1366520D02*
D03*
X1680160Y1207500D02*
D03*
X1625980Y1205000D02*
D03*
X1525000Y1000000D02*
D03*
X1892300Y1460500D02*
D03*
X1689100Y873760D02*
D03*
X1714500D02*
D03*
X1917700D02*
D03*
X1765300Y871220D02*
D03*
X1816100Y785000D02*
D03*
X1866900Y784860D02*
D03*
X1892300D02*
D03*
X1917700D02*
D03*
X1943100D02*
D03*
X1892300Y871220D02*
D03*
X1968500D02*
D03*
X2070100Y873760D02*
D03*
X1739304Y1424940D02*
D03*
X1917700D02*
D03*
X1841500D02*
D03*
X1866900D02*
D03*
X1892300D02*
D03*
X1689100Y1452880D02*
D03*
X1950720Y1066800D02*
D03*
X2011680D02*
D03*
X1663700Y1424940D02*
D03*
X1993900Y1422400D02*
D03*
X1671320Y1038860D02*
D03*
X1717040D02*
D03*
X2352500Y1127500D02*
D03*
X1910000Y1067500D02*
D03*
X1404620Y1270000D02*
D03*
X2289810Y1224280D02*
D03*
X2324100Y1263650D02*
D03*
X2286000Y1301750D02*
D03*
X1475000Y1035000D02*
D03*
X1282750Y1547750D02*
D03*
X1340750Y1267750D02*
D03*
X1341750Y1363000D02*
D03*
X1453700Y1341050D02*
D03*
X1389250Y1320000D02*
D03*
X1442500Y1467500D02*
D03*
X2302500Y1395000D02*
D03*
Y1417500D02*
D03*
X2237500Y1342500D02*
D03*
X1625000Y997500D02*
D03*
X1575000D02*
D03*
X2450000Y1240000D02*
D03*
Y1112500D02*
D03*
Y987500D02*
D03*
X2408000Y1045380D02*
D03*
X2475000Y1085000D02*
D03*
X2520620Y1091000D02*
D03*
X2482500Y1102500D02*
D03*
X2197500Y947660D02*
D03*
X2399700Y947300D02*
D03*
X2350000Y947500D02*
D03*
X2297500D02*
D03*
X2247500D02*
D03*
X1452500Y815000D02*
D03*
X1582500D02*
D03*
X1517500Y815000D02*
D03*
X2037500Y1067500D02*
D03*
X1975000D02*
D03*
X1697500Y1570000D02*
D03*
X2080000Y995000D02*
D03*
X2017500Y992500D02*
D03*
X1952500Y995000D02*
D03*
X1490149Y1556341D02*
D03*
X1420370Y1468700D02*
D03*
X1387649Y1553841D02*
D03*
X1395000Y1410000D02*
D03*
X1426080Y1256500D02*
D03*
X1212050Y1423600D02*
D03*
X1266300Y1282550D02*
D03*
X1295000Y1155000D02*
D03*
X1387500Y817500D02*
D03*
X1225380Y1022350D02*
D03*
Y1047750D02*
D03*
X1270000Y845000D02*
D03*
X1202500Y932500D02*
D03*
X1427500Y1037500D02*
D03*
X1380000Y997500D02*
D03*
X1635000Y1570000D02*
D03*
X1195000Y1392500D02*
D03*
X1172050Y1423600D02*
D03*
X1262500Y1410000D02*
D03*
X2197500Y1517500D02*
D03*
X2145000D02*
D03*
M02*
