G04*
G04 #@! TF.GenerationSoftware,Altium Limited,Altium Designer,22.7.1 (60)*
G04*
G04 Layer_Physical_Order=4*
G04 Layer_Color=16711680*
%FSLAX44Y44*%
%MOMM*%
G71*
G04*
G04 #@! TF.SameCoordinates,7684CF66-3EF2-496F-B3A4-9C416311D090*
G04*
G04*
G04 #@! TF.FilePolarity,Positive*
G04*
G01*
G75*
%ADD11C,0.2000*%
%ADD16C,0.2540*%
%ADD17C,0.0127*%
%ADD18C,0.0064*%
%ADD19R,1.0000X1.4000*%
%ADD21R,1.4000X1.0000*%
%ADD57R,1.5200X1.5200*%
%ADD58C,1.5200*%
%ADD59C,1.0200*%
%ADD60C,1.5750*%
%ADD61C,1.6500*%
%ADD62C,1.5240*%
%ADD63O,1.3080X2.6160*%
%ADD64C,2.2860*%
%ADD65C,1.7780*%
%ADD66C,2.5500*%
%ADD67C,1.2500*%
%ADD68C,3.4000*%
%ADD69C,1.1000*%
%ADD70R,1.6500X1.6500*%
%ADD71C,0.6000*%
%ADD72C,1.2700*%
%ADD85R,1.1500X1.4500*%
%ADD86R,0.9500X0.3500*%
%ADD87R,0.3500X0.9500*%
%ADD88R,2.5500X2.5500*%
%ADD89R,0.5400X0.9400*%
%ADD90R,0.8500X1.0000*%
%ADD91R,1.1400X1.5700*%
%ADD92R,1.4700X1.0200*%
%ADD93O,2.0000X0.8000*%
%ADD94R,1.0201X2.2200*%
%ADD95O,0.8000X2.0000*%
%ADD96R,1.3000X0.6000*%
%ADD97R,0.9000X0.9500*%
%ADD98R,2.8200X1.2200*%
%ADD99R,0.6700X0.3000*%
%ADD100R,1.8000X1.0000*%
%ADD101R,2.2000X1.6000*%
%ADD102C,0.1500*%
D11*
X1405350Y1348900D02*
X1420250Y1334000D01*
X1379000Y1371125D02*
X1442500Y1434625D01*
D16*
X2502370Y1222370D02*
X2503000Y1223000D01*
X2476500Y1221740D02*
X2477130Y1222370D01*
X2502370D01*
X1742440Y1064260D02*
X1833880Y1155700D01*
Y1366520D02*
X1851660Y1384300D01*
X1833880Y1155700D02*
Y1366520D01*
X1851660Y1384300D02*
X2012116D01*
X1854200Y1366520D02*
X2017196D01*
X2012116Y1384300D02*
X2019300Y1391484D01*
X1529080Y1064260D02*
X1742440D01*
X1488500Y1023680D02*
X1529080Y1064260D01*
X1488500Y980500D02*
Y1023680D01*
X1663700Y1206500D02*
X1664700Y1207500D01*
X1680160D01*
X2017196Y1366520D02*
X2044700Y1394024D01*
X1644200Y1205000D02*
X1645700Y1206500D01*
X1625980Y1205000D02*
X1644200D01*
X1487170Y918622D02*
Y944535D01*
X1507635Y965000D01*
X1447800Y939800D02*
X1488500Y980500D01*
X1507635Y965000D02*
X1550000D01*
X1574106Y989106D01*
X1487170Y918622D02*
X1504384Y901408D01*
X1497500Y972500D02*
X1525000Y1000000D01*
X1487684Y972500D02*
X1497500D01*
X1460000Y827500D02*
Y944816D01*
Y827500D02*
X1512660Y774840D01*
X1460000Y944816D02*
X1487684Y972500D01*
X1892300Y1460500D02*
Y1466220D01*
X1765300Y856620D02*
Y871220D01*
X1892300Y784860D02*
Y800100D01*
X1739304Y1410296D02*
Y1424940D01*
X1917700Y1409700D02*
Y1424940D01*
X1739304Y1410296D02*
X1739900Y1409700D01*
X1892300D02*
Y1424940D01*
X1841500Y1409700D02*
Y1424940D01*
X1681480Y1437640D02*
X1882296D01*
X1663700Y1466220D02*
X1666322Y1463598D01*
Y1452798D02*
X1681480Y1437640D01*
X1666322Y1452798D02*
Y1463598D01*
X1882596Y1437340D02*
X1935780D01*
X1940560Y1432560D02*
X2043428D01*
X1935780Y1437340D02*
X1940560Y1432560D01*
X1945012Y1442720D02*
X2065853D01*
X1884700Y1442420D02*
X1938127D01*
X1942908Y1437640D02*
X2063748D01*
X1938127Y1442420D02*
X1942908Y1437640D01*
X1931342Y1456390D02*
X1945012Y1442720D01*
X2043428Y1432560D02*
X2059940Y1416048D01*
X1866900Y1460221D02*
X1884700Y1442420D01*
X2063748Y1437640D02*
X2079010Y1422378D01*
X2065853Y1442720D02*
X2084090Y1424482D01*
X1727200Y1038860D02*
X2059940Y1371600D01*
Y1416048D01*
X1717040Y1038860D02*
X1727200D01*
X1671320D02*
X1681480Y1028700D01*
X2070100Y1374140D02*
Y1409700D01*
X1724660Y1028700D02*
X2070100Y1374140D01*
X1681480Y1028700D02*
X1724660D01*
X1803400Y847732D02*
Y1038424D01*
X1816100Y856620D02*
Y1043940D01*
X2016310Y1244150D01*
X1803400Y847732D02*
X1809422Y841710D01*
X1803400Y1038424D02*
X2026316Y1261340D01*
X1822778Y841710D02*
X1827858Y846790D01*
X2019300Y1391484D02*
Y1409700D01*
X1882296Y1437640D02*
X1882596Y1437340D01*
X2044700Y1394024D02*
Y1409700D01*
X2302500Y1417500D02*
X2368190Y1351810D01*
Y1255422D02*
X2421000Y1202611D01*
X2219891Y1332340D02*
X2269778D01*
X2375000Y1103000D02*
X2381000D01*
X2388810Y1110810D01*
Y1226235D01*
X2363110Y1251935D02*
X2388810Y1226235D01*
X2102178Y1394790D02*
X2106910Y1399521D01*
X2088822Y1394790D02*
X2102178D01*
X2084090Y1399521D02*
X2088822Y1394790D01*
X1921530Y1456390D02*
X1931342D01*
X1917700Y1460221D02*
X1921530Y1456390D01*
X2079010Y1397417D02*
Y1422378D01*
Y1397417D02*
X2086717Y1389710D01*
X2114221Y1424610D02*
X2127622D01*
X2219891Y1332340D01*
X2111990Y1397417D02*
Y1422378D01*
X2306708Y1405160D02*
X2363110Y1348759D01*
X2104283Y1389710D02*
X2111990Y1397417D01*
X2300472Y1405160D02*
X2306708D01*
X2086717Y1389710D02*
X2104283D01*
X2275942Y1429690D02*
X2300472Y1405160D01*
X2368190Y1255422D02*
Y1351810D01*
X2112117Y1429690D02*
X2275942D01*
X2106910Y1424482D02*
X2112117Y1429690D01*
X2111990Y1422378D02*
X2114221Y1424610D01*
X2106910Y1399521D02*
Y1424482D01*
X2363110Y1251935D02*
Y1348759D01*
X1917700Y1460221D02*
Y1466220D01*
X2084090Y1399521D02*
Y1424482D01*
X2357500Y1198500D02*
Y1345000D01*
Y1198500D02*
X2369000Y1187000D01*
X2421000Y1063000D02*
Y1202611D01*
X2269778Y1332340D02*
X2334260Y1267858D01*
X2082800Y1441450D02*
X2095500Y1428750D01*
Y1409700D02*
Y1428750D01*
X2082800Y1441450D02*
Y1475108D01*
X2305500Y1266900D02*
X2317590D01*
X1866900Y1460221D02*
Y1466220D01*
X2317590Y1266900D02*
X2318100Y1266389D01*
X2334260Y1237674D02*
Y1267858D01*
X2305000Y1208414D02*
X2334260Y1237674D01*
X2305000Y1174500D02*
Y1208414D01*
X2263140Y1150620D02*
Y1200984D01*
X2002921Y1216393D02*
X2247731D01*
X2263140Y1200984D01*
X2212750Y1273400D02*
X2266500D01*
X2016310Y1244150D02*
X2276250D01*
X2120900Y1365250D02*
Y1409700D01*
Y1365250D02*
X2212750Y1273400D01*
X2026316Y1261340D02*
X2265680D01*
X2322760Y1091000D02*
X2375000D01*
X2307000Y1155500D02*
X2335000Y1127500D01*
X2305000Y1155500D02*
X2307000D01*
X2335000Y1127500D02*
X2352500D01*
X1866900Y1080372D02*
X2002921Y1216393D01*
X2263140Y1150620D02*
X2322760Y1091000D01*
X1866900Y856620D02*
Y1080372D01*
X1920200Y1067500D02*
X1920900Y1066800D01*
X1809422Y841710D02*
X1822778D01*
X1910000Y1067500D02*
X1920200D01*
X1512570Y935066D02*
X1616085Y831550D01*
X1837670Y846790D02*
X1841500Y850621D01*
X1985330Y835330D02*
X1993198Y843198D01*
X1690588Y821390D02*
X1898923D01*
X1616085Y831550D02*
X1826987D01*
X2005250Y830250D02*
X2018198Y843198D01*
X1829963Y841710D02*
X1934210D01*
X1689100Y819902D02*
X1690588Y821390D01*
X1898923D02*
X1902703Y825170D01*
X1830766Y835330D02*
X1985330D01*
X1716310Y816310D02*
X1912836D01*
X1916616Y820090D02*
X2113142D01*
X1504384Y901408D02*
X1579321Y826470D01*
X1714500Y814500D02*
X1716310Y816310D01*
X1832871Y830250D02*
X2005250D01*
X1912836Y816310D02*
X1916616Y820090D01*
X1681194Y842938D02*
X1687502Y836630D01*
X1824883D02*
X1829963Y841710D01*
X1829091Y826470D02*
X1832871Y830250D01*
X1841500Y850621D02*
Y856620D01*
X1827858Y846790D02*
X1837670D01*
X1579321Y826470D02*
X1829091D01*
X1689100Y800100D02*
Y819902D01*
X1826987Y831550D02*
X1830766Y835330D01*
X1902703Y825170D02*
X2111038D01*
X1687502Y836630D02*
X1824883D01*
X1393300Y1270000D02*
X1404620D01*
X2041670Y955820D02*
Y1001570D01*
X2026920Y941070D02*
X2041670Y955820D01*
X2043400Y1003300D02*
X2046900D01*
X2041670Y1001570D02*
X2043400Y1003300D01*
X1983400Y959190D02*
X2001520Y941070D01*
X1983400Y959190D02*
Y1003300D01*
X1925130Y990700D02*
X1974760Y941070D01*
X1925130Y990700D02*
Y1001570D01*
X1974760Y941070D02*
X1976120D01*
X1919900Y1003300D02*
X1923400D01*
X1925130Y1001570D01*
X1066800Y1054100D02*
Y1054716D01*
X1058128Y1354256D02*
X1059180Y1355308D01*
X1060668D01*
X1058128Y1063388D02*
X1066800Y1054716D01*
X1058128Y1063388D02*
Y1354256D01*
X1003300Y1155700D02*
X1051560Y1203960D01*
X965200Y1155700D02*
X1003300D01*
X1051560Y1203960D02*
Y1356360D01*
X1186180Y1490980D01*
X1060668Y1355308D02*
X1191260Y1485900D01*
X2072008D01*
X2076740Y1490980D02*
X2095500Y1472220D01*
Y1466220D02*
Y1472220D01*
X1186180Y1490980D02*
X2076740D01*
X2318100Y1260400D02*
X2321351Y1263650D01*
X2324100D01*
X2305500Y1260400D02*
X2318100D01*
X2289810Y1224528D02*
Y1226768D01*
Y1224280D02*
Y1224528D01*
X2295750Y1232708D02*
Y1244150D01*
X2289810Y1226768D02*
X2295750Y1232708D01*
X2289530Y1224808D02*
Y1243870D01*
Y1224808D02*
X2289810Y1224528D01*
X2282750Y1231588D02*
X2289530Y1224808D01*
X2282750Y1231588D02*
Y1244150D01*
X2289250D02*
X2289530Y1243870D01*
X2286000Y1299001D02*
Y1301750D01*
X2289250Y1283150D02*
Y1295750D01*
X2286000Y1299001D02*
X2289250Y1295750D01*
X2282750Y1283150D02*
Y1295750D01*
X2072008Y1485900D02*
X2082800Y1475108D01*
X2199285Y1548385D02*
X2287015D01*
X2197100Y1546200D02*
X2199285Y1548385D01*
X2287015D02*
X2298700Y1536700D01*
X2287015Y1497015D02*
X2298700Y1508700D01*
X2146300Y1546200D02*
X2148300D01*
X2197485Y1497015D01*
X2287015D01*
X2144300Y1546200D02*
X2146300D01*
X2120900Y1466220D02*
Y1522800D01*
X2144300Y1546200D01*
X2003400Y1066800D02*
Y1068800D01*
X1475000Y1035000D02*
Y1055000D01*
X1306100Y1527200D02*
X1308100D01*
X1290200Y1511300D02*
X1306100Y1527200D01*
X1206500Y1511300D02*
X1290200D01*
X1206500Y1539300D02*
X1218600Y1527200D01*
X1257300D01*
X1258850Y1547750D02*
X1282750D01*
X1257300Y1546200D02*
X1258850Y1547750D01*
X1306550D02*
X1308100Y1546200D01*
X1282750Y1547750D02*
X1306550D01*
X1290200Y1409700D02*
X1368300D01*
Y1409450D02*
X1371600Y1406150D01*
X1368300Y1409450D02*
Y1409700D01*
X1341750Y1363000D02*
X1350850Y1353900D01*
X1340750Y1267750D02*
X1373050D01*
X1375300Y1270000D01*
X1439800Y1283500D02*
X1447800D01*
X1292250D02*
X1439800D01*
X1291500Y1282750D02*
X1292250Y1283500D01*
X1196800Y1314200D02*
X1225350Y1342750D01*
X1193800Y1314200D02*
X1196800D01*
X1225350Y1342750D02*
X1284250D01*
X1453700Y1352450D02*
X1454000Y1352750D01*
X1453700Y1341050D02*
Y1352450D01*
X1386630Y1325369D02*
X1389250Y1322749D01*
Y1320000D02*
Y1322749D01*
X1434970Y1288330D02*
Y1319280D01*
X1420250Y1334000D02*
X1434970Y1319280D01*
Y1288330D02*
X1439800Y1283500D01*
X1442500Y1434625D02*
Y1467500D01*
X2309444Y1393056D02*
X2357500Y1345000D01*
X2304444Y1393056D02*
X2309444D01*
X2302500Y1395000D02*
X2304444Y1393056D01*
X2369000Y1187000D02*
X2375000D01*
X1939270Y852790D02*
X1943100Y856620D01*
X1939270Y846770D02*
Y852790D01*
X1934210Y841710D02*
X1939270Y846770D01*
X1993198Y843198D02*
Y855918D01*
X1993900Y856620D01*
X2018198Y855518D02*
X2019300Y856620D01*
X2018198Y843198D02*
Y855518D01*
X1504384Y901408D02*
X1504384D01*
X1574106Y989106D02*
Y996606D01*
X1575000Y997500D01*
X1587420Y959920D02*
X1625000Y997500D01*
X1527955Y959920D02*
X1587420D01*
X1473200Y844932D02*
Y939800D01*
Y844932D02*
X1533132Y785000D01*
X1512570Y944535D02*
X1527955Y959920D01*
X1512570Y935066D02*
Y944535D01*
X1524000Y939800D02*
X1591220Y872580D01*
X1629604D01*
X1980993Y810852D02*
X1985150Y815010D01*
X2070100Y806099D02*
X2079010Y815010D01*
X1985150D02*
X2010390D01*
X2111038Y825170D02*
X2134920Y849052D01*
X1980993Y786309D02*
Y810852D01*
X2010390Y815010D02*
X2019300Y806099D01*
X2079010Y815010D02*
X2115246D01*
X2113142Y820090D02*
X2140000Y846948D01*
X2145080Y844843D02*
Y1085080D01*
X2019300Y800100D02*
Y806099D01*
X2115246Y815010D02*
X2145080Y844843D01*
X1939900Y1013800D02*
Y1066800D01*
Y1013800D02*
X1940900Y1012800D01*
X2003400Y1013800D02*
X2004400Y1012800D01*
X2003400Y1013800D02*
Y1066800D01*
X2066900Y1013800D02*
Y1066800D01*
Y1013800D02*
X2067900Y1012800D01*
X2099700D01*
X2145080Y1085080D02*
X2203000Y1143000D01*
X2235200D01*
X2140000Y1127500D02*
X2180900Y1168400D01*
X2235200D01*
X2134920Y849052D02*
Y977580D01*
X2140000Y846948D02*
Y1127500D01*
X2070100Y800100D02*
Y806099D01*
X2099700Y1012800D02*
X2134920Y977580D01*
X2408000Y1045380D02*
Y1050568D01*
Y1045380D02*
Y1063000D01*
X2470000Y1077251D02*
X2475000Y1082251D01*
Y1085000D01*
X2503000Y1091000D02*
X2520620D01*
X2482500Y1102500D02*
X2482750Y1102750D01*
X2502750D02*
X2503000Y1103000D01*
X2482750Y1102750D02*
X2502750D01*
X2470000Y1063000D02*
Y1077251D01*
X1677690Y846441D02*
X1681194Y842938D01*
X1677690Y846441D02*
Y877310D01*
X1714500Y800100D02*
Y814500D01*
X1533132Y785000D02*
X1775600D01*
X1512660Y774840D02*
X1831150D01*
X1454844Y769840D02*
X1454924Y769760D01*
X1959364Y764680D02*
X1959444Y764760D01*
X1831150Y774840D02*
X1841500Y785190D01*
X1454924Y769760D02*
X1957260D01*
X1452820Y764680D02*
X1959364D01*
X1427340Y782976D02*
X1450716Y759600D01*
X1977100D02*
X1992500Y775000D01*
X1775600Y785000D02*
X1790700Y800100D01*
X1957260Y769760D02*
X1968500Y781000D01*
X1450716Y759600D02*
X1977100D01*
X1432420Y785080D02*
X1452820Y764680D01*
X1470000Y1060000D02*
X1475000Y1055000D01*
X1337500Y1045000D02*
X1352500Y1060000D01*
X1470000D01*
X2037500Y1067500D02*
X2047200D01*
X1983700D02*
X1984400Y1066800D01*
X1975000Y1067500D02*
X1983700D01*
X2047200D02*
X2047900Y1066800D01*
X2079400Y994400D02*
X2080000Y995000D01*
X2068500Y994400D02*
X2079400D01*
X2067900Y993800D02*
X2068500Y994400D01*
X1951900D02*
X1952500Y995000D01*
X2005050Y993150D02*
X2016850D01*
X2017500Y992500D01*
X2004400Y993800D02*
X2005050Y993150D01*
X1941500Y994400D02*
X1951900D01*
X1940900Y993800D02*
X1941500Y994400D01*
X1384600Y1410000D02*
X1395000D01*
X1384300Y1409700D02*
X1384600Y1410000D01*
X1426080Y1256500D02*
X1447800D01*
X1200750Y1425000D02*
X1202150Y1423600D01*
X1212050D01*
X1275300Y1282550D02*
X1275500Y1282750D01*
X1266300Y1282550D02*
X1275300D01*
X1841500Y785190D02*
Y800100D01*
X1959444Y764760D02*
X1980993Y786309D01*
X1437500Y787184D02*
X1454844Y769840D01*
X1574800Y939800D02*
X1629600Y885000D01*
X1670000D01*
X1992500Y775000D02*
Y798700D01*
X1993900Y800100D01*
X1432420Y785080D02*
Y867580D01*
X1437500Y787184D02*
Y870000D01*
X1345000Y955000D02*
X1432420Y867580D01*
X1380000Y927500D02*
X1437500Y870000D01*
X1427340Y782976D02*
Y862660D01*
X1337500Y952500D02*
X1427340Y862660D01*
X1337500Y952500D02*
Y1045000D01*
X1345000Y955000D02*
Y1045000D01*
X1380000Y927500D02*
Y997500D01*
X1354920Y1054920D02*
X1425080D01*
X1427500Y1052500D01*
X1345000Y1045000D02*
X1354920Y1054920D01*
X1427500Y1037500D02*
Y1052500D01*
X1968500Y781000D02*
Y800100D01*
X1629604Y872580D02*
X1645564Y856620D01*
X1663700D01*
X1670000Y885000D02*
X1677690Y877310D01*
X1193800Y1378200D02*
X1195000Y1379400D01*
Y1392500D01*
X1172050Y1423600D02*
X1183150D01*
X1184550Y1425000D01*
X1274900Y1410000D02*
X1275200Y1409700D01*
X1262500Y1410000D02*
X1274900D01*
X2197500Y1517500D02*
Y1526800D01*
X2197100Y1527200D02*
X2197500Y1526800D01*
X2145000Y1525900D02*
X2146300Y1527200D01*
X2145000Y1517500D02*
Y1525900D01*
D17*
X2612500Y1340000D02*
G03*
X2562500Y1390000I-50000J0D01*
G01*
X2462500Y940000D02*
G03*
X2412500Y890000I0J-50000D01*
G01*
X2562500Y940000D02*
G03*
X2612500Y990000I0J50000D01*
G01*
X1062500Y790000D02*
G03*
X1112500Y740000I50000J0D01*
G01*
X862500Y990000D02*
G03*
X912500Y940000I50000J0D01*
G01*
X2362500Y740000D02*
G03*
X2412500Y790000I0J50000D01*
G01*
Y1440000D02*
G03*
X2462500Y1390000I50000J0D01*
G01*
X2412500Y1540000D02*
G03*
X2362500Y1590000I-50000J0D01*
G01*
X1012500Y1390000D02*
G03*
X1062500Y1440000I0J50000D01*
G01*
X912500Y1390000D02*
G03*
X862500Y1340000I0J-50000D01*
G01*
X1062500Y890000D02*
G03*
X1012500Y940000I-50000J0D01*
G01*
X1112500Y1590000D02*
G03*
X1062500Y1540000I0J-50000D01*
G01*
X1063600Y790410D02*
G03*
X1113600Y740410I50000J0D01*
G01*
X863600Y990410D02*
G03*
X913600Y940410I50000J0D01*
G01*
X2613600Y1340410D02*
G03*
X2563600Y1390410I-50000J0D01*
G01*
X2413600Y1440410D02*
G03*
X2463600Y1390410I50000J0D01*
G01*
Y940410D02*
G03*
X2413600Y890410I0J-50000D01*
G01*
X2363600Y740410D02*
G03*
X2413600Y790410I0J50000D01*
G01*
Y1540410D02*
G03*
X2363600Y1590410I-50000J0D01*
G01*
X1113600D02*
G03*
X1063600Y1540410I0J-50000D01*
G01*
X1013600Y1390410D02*
G03*
X1063600Y1440410I0J50000D01*
G01*
X913600Y1390410D02*
G03*
X863600Y1340410I0J-50000D01*
G01*
X1063600Y890410D02*
G03*
X1013600Y940410I-50000J0D01*
G01*
X2612500Y990000D02*
Y1340000D01*
X912500Y940000D02*
X1012500D01*
X1112500Y740000D02*
X2362500D01*
X862500Y990000D02*
Y1340000D01*
X1062500Y790000D02*
Y890000D01*
Y1440000D02*
Y1540000D01*
X1112500Y1590000D02*
X2362500D01*
X2462500Y1390000D02*
X2562500D01*
X2462500Y940000D02*
X2562500D01*
X2412500Y1440000D02*
Y1540000D01*
Y790000D02*
Y890000D01*
X912500Y1390000D02*
X1012500D01*
X1063600Y1440410D02*
Y1540410D01*
X1113600Y1590410D02*
X2363600D01*
X863600Y990410D02*
Y1340410D01*
X913600Y1390410D02*
X1013600D01*
X2463600Y940410D02*
X2613600D01*
X1113600Y740410D02*
X2363600D01*
X2613600Y940410D02*
Y1340410D01*
X913600Y940410D02*
X1013600D01*
X2413600Y790410D02*
Y890410D01*
X2463600Y1390410D02*
X2563600D01*
X2413600Y1440410D02*
Y1540410D01*
X1063600Y790410D02*
Y890410D01*
D18*
X862532Y740000D02*
G03*
X862532Y740000I-32J0D01*
G01*
D02*
G03*
X862532Y740000I-32J0D01*
G01*
D19*
X1984400Y1066800D02*
D03*
X1920900D02*
D03*
X2047900D02*
D03*
X2066900D02*
D03*
X2003400D02*
D03*
X1939900D02*
D03*
D21*
X1454000Y1371750D02*
D03*
Y1352750D02*
D03*
X2305000Y1155500D02*
D03*
Y1174500D02*
D03*
X2197100Y1546200D02*
D03*
Y1527200D02*
D03*
X2146300Y1546200D02*
D03*
Y1527200D02*
D03*
X1257300D02*
D03*
Y1546200D02*
D03*
X1308100Y1527200D02*
D03*
Y1546200D02*
D03*
D57*
X1636100Y1536700D02*
D03*
D58*
X1666100D02*
D03*
X1696100D02*
D03*
X1726100D02*
D03*
X1756100D02*
D03*
X1786100D02*
D03*
X1816100D02*
D03*
X1846100D02*
D03*
D59*
X1858900Y1526900D02*
D03*
D60*
X2273300Y1508700D02*
D03*
Y1536700D02*
D03*
X1181100Y1511300D02*
D03*
Y1539300D02*
D03*
X2298700Y1508700D02*
D03*
Y1536700D02*
D03*
X1206500Y1511300D02*
D03*
Y1539300D02*
D03*
D61*
X2235200Y1193800D02*
D03*
Y1168400D02*
D03*
D62*
X2077720Y941070D02*
D03*
X1925320D02*
D03*
X1422400Y939800D02*
D03*
X1447800D02*
D03*
X1473200D02*
D03*
X1498600D02*
D03*
X1524000D02*
D03*
X1549400D02*
D03*
X1574800D02*
D03*
X1950720Y941070D02*
D03*
X1976120D02*
D03*
X2001520D02*
D03*
X2026920D02*
D03*
X2052320D02*
D03*
D63*
X1463870Y1555320D02*
D03*
X1408870D02*
D03*
D64*
X1143000Y1222375D02*
D03*
Y1089025D02*
D03*
X990600D02*
D03*
Y1222375D02*
D03*
D65*
X965200Y1130300D02*
D03*
X1092200Y1054100D02*
D03*
X965200Y1155700D02*
D03*
Y1181100D02*
D03*
X1066800Y1054100D02*
D03*
X1041400D02*
D03*
X1098550Y1231900D02*
D03*
X1035050D02*
D03*
X1098550Y1282700D02*
D03*
X1035050D02*
D03*
D66*
X1347500Y820000D02*
D03*
X1366000Y800000D02*
D03*
X1329000D02*
D03*
D67*
X1195400Y812100D02*
D03*
Y862900D02*
D03*
X1170000Y837500D02*
D03*
D68*
X2367500Y1495000D02*
D03*
Y835000D02*
D03*
X1107500D02*
D03*
Y1495000D02*
D03*
D69*
X1412870Y1520320D02*
D03*
X1459870D02*
D03*
D70*
X2235200Y1143000D02*
D03*
D71*
X1347500Y775000D02*
D03*
D72*
X2476500Y1221740D02*
D03*
X1854200Y1366520D02*
D03*
X1680160Y1207500D02*
D03*
X1625980Y1205000D02*
D03*
X1525000Y1000000D02*
D03*
X1892300Y1460500D02*
D03*
X1689100Y873760D02*
D03*
X1714500D02*
D03*
X1917700D02*
D03*
X1765300Y871220D02*
D03*
X1816100Y785000D02*
D03*
X1866900Y784860D02*
D03*
X1892300D02*
D03*
X1917700D02*
D03*
X1943100D02*
D03*
X1892300Y871220D02*
D03*
X1968500D02*
D03*
X2070100Y873760D02*
D03*
X1739304Y1424940D02*
D03*
X1917700D02*
D03*
X1841500D02*
D03*
X1866900D02*
D03*
X1892300D02*
D03*
X1689100Y1452880D02*
D03*
X1950720Y1066800D02*
D03*
X2011680D02*
D03*
X1663700Y1424940D02*
D03*
X1993900Y1422400D02*
D03*
X1671320Y1038860D02*
D03*
X1717040D02*
D03*
X2352500Y1127500D02*
D03*
X1910000Y1067500D02*
D03*
X1404620Y1270000D02*
D03*
X2289810Y1224280D02*
D03*
X2324100Y1263650D02*
D03*
X2286000Y1301750D02*
D03*
X1475000Y1035000D02*
D03*
X1282750Y1547750D02*
D03*
X1340750Y1267750D02*
D03*
X1341750Y1363000D02*
D03*
X1453700Y1341050D02*
D03*
X1389250Y1320000D02*
D03*
X1442500Y1467500D02*
D03*
X2302500Y1395000D02*
D03*
Y1417500D02*
D03*
X2237500Y1342500D02*
D03*
X1625000Y997500D02*
D03*
X1575000D02*
D03*
X2450000Y1240000D02*
D03*
Y1112500D02*
D03*
Y987500D02*
D03*
X2408000Y1045380D02*
D03*
X2475000Y1085000D02*
D03*
X2520620Y1091000D02*
D03*
X2482500Y1102500D02*
D03*
X2197500Y947660D02*
D03*
X2399700Y947300D02*
D03*
X2350000Y947500D02*
D03*
X2297500D02*
D03*
X2247500D02*
D03*
X1452500Y815000D02*
D03*
X1582500D02*
D03*
X1517500Y815000D02*
D03*
X2037500Y1067500D02*
D03*
X1975000D02*
D03*
X1697500Y1570000D02*
D03*
X2080000Y995000D02*
D03*
X2017500Y992500D02*
D03*
X1952500Y995000D02*
D03*
X1490149Y1556341D02*
D03*
X1420370Y1468700D02*
D03*
X1387649Y1553841D02*
D03*
X1395000Y1410000D02*
D03*
X1426080Y1256500D02*
D03*
X1212050Y1423600D02*
D03*
X1266300Y1282550D02*
D03*
X1295000Y1155000D02*
D03*
X1387500Y817500D02*
D03*
X1225380Y1022350D02*
D03*
Y1047750D02*
D03*
X1270000Y845000D02*
D03*
X1202500Y932500D02*
D03*
X1427500Y1037500D02*
D03*
X1380000Y997500D02*
D03*
X1635000Y1570000D02*
D03*
X1195000Y1392500D02*
D03*
X1172050Y1423600D02*
D03*
X1262500Y1410000D02*
D03*
X2197500Y1517500D02*
D03*
X2145000D02*
D03*
D85*
X1663700Y1206500D02*
D03*
X1645700D02*
D03*
X1393300Y1270000D02*
D03*
X1375300D02*
D03*
D86*
X2305500Y1273400D02*
D03*
Y1266900D02*
D03*
Y1260400D02*
D03*
Y1253900D02*
D03*
X2266500D02*
D03*
Y1260400D02*
D03*
Y1266900D02*
D03*
Y1273400D02*
D03*
D87*
X2295750Y1244150D02*
D03*
X2289250D02*
D03*
X2282750D02*
D03*
X2276250D02*
D03*
Y1283150D02*
D03*
X2282750D02*
D03*
X2289250D02*
D03*
X2295750D02*
D03*
D88*
X2286000Y1263650D02*
D03*
D89*
X1291500Y1282750D02*
D03*
X1275500D02*
D03*
D90*
X1275200Y1409700D02*
D03*
X1290200D02*
D03*
D91*
X1200750Y1425000D02*
D03*
X1184550D02*
D03*
D92*
X1284250Y1358750D02*
D03*
Y1342750D02*
D03*
D93*
X2503000Y1223000D02*
D03*
Y1091000D02*
D03*
X2375000D02*
D03*
Y1103000D02*
D03*
Y1115000D02*
D03*
Y1127000D02*
D03*
Y1139000D02*
D03*
Y1151000D02*
D03*
Y1163000D02*
D03*
Y1175000D02*
D03*
Y1187000D02*
D03*
Y1199000D02*
D03*
Y1211000D02*
D03*
Y1223000D02*
D03*
X2503000Y1103000D02*
D03*
Y1115000D02*
D03*
Y1127000D02*
D03*
Y1139000D02*
D03*
Y1151000D02*
D03*
Y1163000D02*
D03*
Y1175000D02*
D03*
Y1187000D02*
D03*
Y1199000D02*
D03*
Y1211000D02*
D03*
D94*
X1892300Y1466220D02*
D03*
Y1409700D02*
D03*
X1917700D02*
D03*
X1739900D02*
D03*
X1892300Y800100D02*
D03*
X1765300Y856620D02*
D03*
X1663700D02*
D03*
Y1409700D02*
D03*
X1689100D02*
D03*
Y1466220D02*
D03*
X1714500Y1409700D02*
D03*
Y1466220D02*
D03*
X1739900D02*
D03*
X1765300Y1409700D02*
D03*
Y1466220D02*
D03*
X1790700Y1409700D02*
D03*
Y1466220D02*
D03*
X1816100Y1409700D02*
D03*
Y1466220D02*
D03*
X1841500Y1409700D02*
D03*
Y1466220D02*
D03*
X1866900Y1409700D02*
D03*
Y1466220D02*
D03*
X1917700D02*
D03*
X1943100Y1409700D02*
D03*
Y1466220D02*
D03*
X1968500Y1409700D02*
D03*
Y1466220D02*
D03*
X1993900Y1409700D02*
D03*
Y1466220D02*
D03*
X2019300Y1409700D02*
D03*
Y1466220D02*
D03*
X2044700Y1409700D02*
D03*
Y1466220D02*
D03*
X2070100Y1409700D02*
D03*
Y1466220D02*
D03*
X2095500Y1409700D02*
D03*
Y1466220D02*
D03*
X2120900Y1409700D02*
D03*
Y1466220D02*
D03*
Y856620D02*
D03*
Y800100D02*
D03*
X2095500Y856620D02*
D03*
Y800100D02*
D03*
X2070100Y856620D02*
D03*
Y800100D02*
D03*
X2044700Y856620D02*
D03*
Y800100D02*
D03*
X2019300Y856620D02*
D03*
Y800100D02*
D03*
X1993900Y856620D02*
D03*
Y800100D02*
D03*
X1968500Y856620D02*
D03*
Y800100D02*
D03*
X1943100Y856620D02*
D03*
Y800100D02*
D03*
X1917700Y856620D02*
D03*
Y800100D02*
D03*
X1892300Y856620D02*
D03*
X1866900D02*
D03*
Y800100D02*
D03*
X1841500Y856620D02*
D03*
Y800100D02*
D03*
X1816100Y856620D02*
D03*
Y800100D02*
D03*
X1790700Y856620D02*
D03*
Y800100D02*
D03*
X1765300D02*
D03*
X1739900Y856620D02*
D03*
Y800100D02*
D03*
X1714500Y856620D02*
D03*
Y800100D02*
D03*
X1689100Y856620D02*
D03*
Y800100D02*
D03*
X1663700Y856620D02*
D03*
Y800100D02*
D03*
Y1466220D02*
D03*
D95*
X2470000Y1063000D02*
D03*
X2408000D02*
D03*
X2480000D02*
D03*
X2398000D02*
D03*
X2421000D02*
D03*
X2433000D02*
D03*
X2445000D02*
D03*
X2457000D02*
D03*
D96*
X2067900Y993800D02*
D03*
X2004400D02*
D03*
X1940900D02*
D03*
X2046900Y1003300D02*
D03*
X2067900Y1012800D02*
D03*
X1983400Y1003300D02*
D03*
X2004400Y1012800D02*
D03*
X1919900Y1003300D02*
D03*
X1940900Y1012800D02*
D03*
D97*
X1384300Y1409700D02*
D03*
X1368300D02*
D03*
D98*
X1447800Y1256500D02*
D03*
Y1283500D02*
D03*
D99*
X1386400Y1343900D02*
D03*
Y1358900D02*
D03*
Y1353900D02*
D03*
Y1348900D02*
D03*
X1371600Y1343900D02*
D03*
Y1348900D02*
D03*
Y1353900D02*
D03*
Y1358900D02*
D03*
D100*
X2383000Y1260000D02*
D03*
X2495000D02*
D03*
X2383000Y1070000D02*
D03*
X2495000D02*
D03*
D101*
X1193800Y1314200D02*
D03*
Y1378200D02*
D03*
D102*
X1371600Y1358900D02*
Y1406150D01*
X1350850Y1353900D02*
X1371600D01*
X1284250Y1342750D02*
X1285400Y1343900D01*
X1371600D01*
X1284250Y1358750D02*
X1286500D01*
X1296350Y1348900D01*
X1371600D01*
X1399250Y1371750D02*
X1454000D01*
X1386400Y1358900D02*
X1399250Y1371750D01*
X1386630Y1325369D02*
Y1343670D01*
X1386400Y1343900D02*
X1386630Y1343670D01*
X1386400Y1348900D02*
X1405350D01*
X1379000Y1351797D02*
Y1371125D01*
Y1351797D02*
X1381687Y1349110D01*
X1386190D02*
X1386400Y1348900D01*
X1381687Y1349110D02*
X1386190D01*
M02*
