G04*
G04 #@! TF.GenerationSoftware,Altium Limited,Altium Designer,22.7.1 (60)*
G04*
G04 Layer_Color=8388736*
%FSLAX44Y44*%
%MOMM*%
G71*
G04*
G04 #@! TF.SameCoordinates,7684CF66-3EF2-496F-B3A4-9C416311D090*
G04*
G04*
G04 #@! TF.FilePolarity,Negative*
G04*
G01*
G75*
%ADD17C,0.0127*%
%ADD18C,0.0064*%
%ADD30R,1.2032X1.6032*%
%ADD31R,1.7032X1.9532*%
%ADD32R,1.6032X1.2032*%
%ADD33R,0.9032X0.6032*%
%ADD34R,2.1032X2.6532*%
%ADD35R,1.6532X1.3532*%
%ADD36O,2.7032X0.9032*%
%ADD37R,1.7732X1.3432*%
%ADD38R,2.0066X1.3208*%
%ADD39R,1.1032X2.6532*%
%ADD40R,2.1232X1.4232*%
%ADD41R,1.7232X1.7232*%
%ADD42C,1.7232*%
%ADD43C,1.2232*%
%ADD44C,1.7782*%
%ADD45C,1.8532*%
%ADD46C,1.7272*%
%ADD47O,1.5112X2.8192*%
%ADD48C,2.4892*%
%ADD49C,1.9812*%
%ADD50C,2.7532*%
%ADD51C,1.4532*%
%ADD52C,3.6032*%
%ADD53C,1.3032*%
%ADD54R,1.8532X1.8532*%
%ADD55C,0.8032*%
%ADD56C,1.4732*%
D17*
X2612500Y1340000D02*
G03*
X2562500Y1390000I-50000J0D01*
G01*
X2462500Y940000D02*
G03*
X2412500Y890000I0J-50000D01*
G01*
X2562500Y940000D02*
G03*
X2612500Y990000I0J50000D01*
G01*
X1062500Y790000D02*
G03*
X1112500Y740000I50000J0D01*
G01*
X862500Y990000D02*
G03*
X912500Y940000I50000J0D01*
G01*
X2362500Y740000D02*
G03*
X2412500Y790000I0J50000D01*
G01*
Y1440000D02*
G03*
X2462500Y1390000I50000J0D01*
G01*
X2412500Y1540000D02*
G03*
X2362500Y1590000I-50000J0D01*
G01*
X1012500Y1390000D02*
G03*
X1062500Y1440000I0J50000D01*
G01*
X912500Y1390000D02*
G03*
X862500Y1340000I0J-50000D01*
G01*
X1062500Y890000D02*
G03*
X1012500Y940000I-50000J0D01*
G01*
X1112500Y1590000D02*
G03*
X1062500Y1540000I0J-50000D01*
G01*
X1063600Y790410D02*
G03*
X1113600Y740410I50000J0D01*
G01*
X863600Y990410D02*
G03*
X913600Y940410I50000J0D01*
G01*
X2613600Y1340410D02*
G03*
X2563600Y1390410I-50000J0D01*
G01*
X2413600Y1440410D02*
G03*
X2463600Y1390410I50000J0D01*
G01*
Y940410D02*
G03*
X2413600Y890410I0J-50000D01*
G01*
X2363600Y740410D02*
G03*
X2413600Y790410I0J50000D01*
G01*
Y1540410D02*
G03*
X2363600Y1590410I-50000J0D01*
G01*
X1113600D02*
G03*
X1063600Y1540410I0J-50000D01*
G01*
X1013600Y1390410D02*
G03*
X1063600Y1440410I0J50000D01*
G01*
X913600Y1390410D02*
G03*
X863600Y1340410I0J-50000D01*
G01*
X1063600Y890410D02*
G03*
X1013600Y940410I-50000J0D01*
G01*
X2612500Y990000D02*
Y1340000D01*
X912500Y940000D02*
X1012500D01*
X1112500Y740000D02*
X2362500D01*
X862500Y990000D02*
Y1340000D01*
X1062500Y790000D02*
Y890000D01*
Y1440000D02*
Y1540000D01*
X1112500Y1590000D02*
X2362500D01*
X2462500Y1390000D02*
X2562500D01*
X2462500Y940000D02*
X2562500D01*
X2412500Y1440000D02*
Y1540000D01*
Y790000D02*
Y890000D01*
X912500Y1390000D02*
X1012500D01*
X1063600Y1440410D02*
Y1540410D01*
X1113600Y1590410D02*
X2363600D01*
X863600Y990410D02*
Y1340410D01*
X913600Y1390410D02*
X1013600D01*
X2463600Y940410D02*
X2613600D01*
X1113600Y740410D02*
X2363600D01*
X2613600Y940410D02*
Y1340410D01*
X913600Y940410D02*
X1013600D01*
X2413600Y790410D02*
Y890410D01*
X2463600Y1390410D02*
X2563600D01*
X2413600Y1440410D02*
Y1540410D01*
X1063600Y790410D02*
Y890410D01*
D18*
X862532Y740000D02*
G03*
X862532Y740000I-32J0D01*
G01*
D02*
G03*
X862532Y740000I-32J0D01*
G01*
D30*
X2275000Y1342500D02*
D03*
X2256000D02*
D03*
X2198000D02*
D03*
X2217000D02*
D03*
X1695500Y1017500D02*
D03*
X1714500D02*
D03*
X1669500D02*
D03*
X1650500D02*
D03*
X1427000D02*
D03*
X1408000D02*
D03*
X1455500D02*
D03*
X1474500D02*
D03*
X1379500D02*
D03*
X1360500D02*
D03*
X1624500D02*
D03*
X1605500D02*
D03*
X1574500D02*
D03*
X1555500D02*
D03*
X1524500D02*
D03*
X1505500D02*
D03*
D31*
X2495000Y1083750D02*
D03*
X2450000D02*
D03*
X2495000Y1001250D02*
D03*
X2450000D02*
D03*
X2495000Y1333750D02*
D03*
X2450000D02*
D03*
X2495000Y1251250D02*
D03*
X2450000D02*
D03*
X2585000Y1211250D02*
D03*
X2540000D02*
D03*
X2585000Y1128750D02*
D03*
X2540000D02*
D03*
X2495000Y1208750D02*
D03*
X2450000D02*
D03*
X2495000Y1126250D02*
D03*
X2450000D02*
D03*
X2407500Y1208750D02*
D03*
X2362500D02*
D03*
X2407500Y1126250D02*
D03*
X2362500D02*
D03*
D32*
X2349500Y955700D02*
D03*
Y974700D02*
D03*
X2400000Y955500D02*
D03*
Y974500D02*
D03*
X2298700Y974700D02*
D03*
Y955700D02*
D03*
X2247900D02*
D03*
Y974700D02*
D03*
X2197100Y955700D02*
D03*
Y974700D02*
D03*
X1269600Y854100D02*
D03*
X1270000Y803250D02*
D03*
Y784250D02*
D03*
X1269600Y873100D02*
D03*
D33*
X1591160Y818840D02*
D03*
Y811840D02*
D03*
X1525120Y818840D02*
D03*
X1460200Y819150D02*
D03*
X1397000Y819800D02*
D03*
X1525120Y811840D02*
D03*
X1460200Y812150D02*
D03*
X1397000Y812800D02*
D03*
X1604160Y811840D02*
D03*
Y818840D02*
D03*
X1473200Y812150D02*
D03*
Y819150D02*
D03*
X1410000Y812800D02*
D03*
Y819800D02*
D03*
X2248000Y1400000D02*
D03*
Y1407000D02*
D03*
X2235000Y1400000D02*
D03*
Y1407000D02*
D03*
X1538120Y818840D02*
D03*
Y811840D02*
D03*
D34*
X1420370Y1488570D02*
D03*
D35*
X1295400Y1143000D02*
D03*
Y1125000D02*
D03*
D36*
X1245500Y1047750D02*
D03*
Y1022350D02*
D03*
X1294500D02*
D03*
Y1035050D02*
D03*
Y1047750D02*
D03*
Y1060450D02*
D03*
X1245500Y1035050D02*
D03*
Y1060450D02*
D03*
D37*
X1201420Y944880D02*
D03*
Y961080D02*
D03*
D38*
X1244600Y965200D02*
D03*
Y935228D02*
D03*
D39*
X1440370Y1488570D02*
D03*
D40*
X1295400Y966000D02*
D03*
Y939000D02*
D03*
D41*
X1636100Y1536700D02*
D03*
D42*
X1666100D02*
D03*
X1696100D02*
D03*
X1726100D02*
D03*
X1756100D02*
D03*
X1786100D02*
D03*
X1816100D02*
D03*
X1846100D02*
D03*
D43*
X1858900Y1526900D02*
D03*
D44*
X2273300Y1508700D02*
D03*
Y1536700D02*
D03*
X1181100Y1511300D02*
D03*
Y1539300D02*
D03*
X2298700Y1508700D02*
D03*
Y1536700D02*
D03*
X1206500Y1511300D02*
D03*
Y1539300D02*
D03*
D45*
X2235200Y1193800D02*
D03*
Y1168400D02*
D03*
D46*
X2077720Y941070D02*
D03*
X1925320D02*
D03*
X1422400Y939800D02*
D03*
X1447800D02*
D03*
X1473200D02*
D03*
X1498600D02*
D03*
X1524000D02*
D03*
X1549400D02*
D03*
X1574800D02*
D03*
X1950720Y941070D02*
D03*
X1976120D02*
D03*
X2001520D02*
D03*
X2026920D02*
D03*
X2052320D02*
D03*
D47*
X1463870Y1555320D02*
D03*
X1408870D02*
D03*
D48*
X1143000Y1222375D02*
D03*
Y1089025D02*
D03*
X990600D02*
D03*
Y1222375D02*
D03*
D49*
X965200Y1130300D02*
D03*
X1092200Y1054100D02*
D03*
X965200Y1155700D02*
D03*
Y1181100D02*
D03*
X1066800Y1054100D02*
D03*
X1041400D02*
D03*
X1098550Y1231900D02*
D03*
X1035050D02*
D03*
X1098550Y1282700D02*
D03*
X1035050D02*
D03*
D50*
X1347500Y820000D02*
D03*
X1366000Y800000D02*
D03*
X1329000D02*
D03*
D51*
X1195400Y812100D02*
D03*
Y862900D02*
D03*
X1170000Y837500D02*
D03*
D52*
X2367500Y1495000D02*
D03*
Y835000D02*
D03*
X1107500D02*
D03*
Y1495000D02*
D03*
D53*
X1412870Y1520320D02*
D03*
X1459870D02*
D03*
D54*
X2235200Y1143000D02*
D03*
D55*
X1347500Y775000D02*
D03*
D56*
X2476500Y1221740D02*
D03*
X1854200Y1366520D02*
D03*
X1680160Y1207500D02*
D03*
X1625980Y1205000D02*
D03*
X1525000Y1000000D02*
D03*
X1892300Y1460500D02*
D03*
X1689100Y873760D02*
D03*
X1714500D02*
D03*
X1917700D02*
D03*
X1765300Y871220D02*
D03*
X1816100Y785000D02*
D03*
X1866900Y784860D02*
D03*
X1892300D02*
D03*
X1917700D02*
D03*
X1943100D02*
D03*
X1892300Y871220D02*
D03*
X1968500D02*
D03*
X2070100Y873760D02*
D03*
X1739304Y1424940D02*
D03*
X1917700D02*
D03*
X1841500D02*
D03*
X1866900D02*
D03*
X1892300D02*
D03*
X1689100Y1452880D02*
D03*
X1950720Y1066800D02*
D03*
X2011680D02*
D03*
X1663700Y1424940D02*
D03*
X1993900Y1422400D02*
D03*
X1671320Y1038860D02*
D03*
X1717040D02*
D03*
X2352500Y1127500D02*
D03*
X1910000Y1067500D02*
D03*
X1404620Y1270000D02*
D03*
X2289810Y1224280D02*
D03*
X2324100Y1263650D02*
D03*
X2286000Y1301750D02*
D03*
X1475000Y1035000D02*
D03*
X1282750Y1547750D02*
D03*
X1340750Y1267750D02*
D03*
X1341750Y1363000D02*
D03*
X1453700Y1341050D02*
D03*
X1389250Y1320000D02*
D03*
X1442500Y1467500D02*
D03*
X2302500Y1395000D02*
D03*
Y1417500D02*
D03*
X2237500Y1342500D02*
D03*
X1625000Y997500D02*
D03*
X1575000D02*
D03*
X2450000Y1240000D02*
D03*
Y1112500D02*
D03*
Y987500D02*
D03*
X2408000Y1045380D02*
D03*
X2475000Y1085000D02*
D03*
X2520620Y1091000D02*
D03*
X2482500Y1102500D02*
D03*
X2197500Y947660D02*
D03*
X2399700Y947300D02*
D03*
X2350000Y947500D02*
D03*
X2297500D02*
D03*
X2247500D02*
D03*
X1452500Y815000D02*
D03*
X1582500D02*
D03*
X1517500Y815000D02*
D03*
X2037500Y1067500D02*
D03*
X1975000D02*
D03*
X1697500Y1570000D02*
D03*
X2080000Y995000D02*
D03*
X2017500Y992500D02*
D03*
X1952500Y995000D02*
D03*
X1490149Y1556341D02*
D03*
X1420370Y1468700D02*
D03*
X1387649Y1553841D02*
D03*
X1395000Y1410000D02*
D03*
X1426080Y1256500D02*
D03*
X1212050Y1423600D02*
D03*
X1266300Y1282550D02*
D03*
X1295000Y1155000D02*
D03*
X1387500Y817500D02*
D03*
X1225380Y1022350D02*
D03*
Y1047750D02*
D03*
X1270000Y845000D02*
D03*
X1202500Y932500D02*
D03*
X1427500Y1037500D02*
D03*
X1380000Y997500D02*
D03*
X1635000Y1570000D02*
D03*
X1195000Y1392500D02*
D03*
X1172050Y1423600D02*
D03*
X1262500Y1410000D02*
D03*
X2197500Y1517500D02*
D03*
X2145000D02*
D03*
M02*
