G04*
G04 #@! TF.GenerationSoftware,Altium Limited,Altium Designer,22.7.1 (60)*
G04*
G04 Layer_Color=128*
%FSLAX44Y44*%
%MOMM*%
G71*
G04*
G04 #@! TF.SameCoordinates,7684CF66-3EF2-496F-B3A4-9C416311D090*
G04*
G04*
G04 #@! TF.FilePolarity,Positive*
G04*
G01*
G75*
%ADD17C,0.0127*%
%ADD18C,0.0064*%
%ADD19R,1.0000X1.4000*%
%ADD21R,1.4000X1.0000*%
%ADD85R,1.1500X1.4500*%
%ADD86R,0.9500X0.3500*%
%ADD87R,0.3500X0.9500*%
%ADD88R,2.5500X2.5500*%
%ADD89R,0.5400X0.9400*%
%ADD90R,0.8500X1.0000*%
%ADD91R,1.1400X1.5700*%
%ADD92R,1.4700X1.0200*%
%ADD93O,2.0000X0.8000*%
%ADD94R,1.0201X2.2200*%
%ADD95O,0.8000X2.0000*%
%ADD96R,1.3000X0.6000*%
%ADD97R,0.9000X0.9500*%
%ADD98R,2.8200X1.2200*%
%ADD99R,0.6700X0.3000*%
%ADD100R,1.8000X1.0000*%
%ADD101R,2.2000X1.6000*%
D17*
X2612500Y1340000D02*
G03*
X2562500Y1390000I-50000J0D01*
G01*
X2462500Y940000D02*
G03*
X2412500Y890000I0J-50000D01*
G01*
X2562500Y940000D02*
G03*
X2612500Y990000I0J50000D01*
G01*
X1062500Y790000D02*
G03*
X1112500Y740000I50000J0D01*
G01*
X862500Y990000D02*
G03*
X912500Y940000I50000J0D01*
G01*
X2362500Y740000D02*
G03*
X2412500Y790000I0J50000D01*
G01*
Y1440000D02*
G03*
X2462500Y1390000I50000J0D01*
G01*
X2412500Y1540000D02*
G03*
X2362500Y1590000I-50000J0D01*
G01*
X1012500Y1390000D02*
G03*
X1062500Y1440000I0J50000D01*
G01*
X912500Y1390000D02*
G03*
X862500Y1340000I0J-50000D01*
G01*
X1062500Y890000D02*
G03*
X1012500Y940000I-50000J0D01*
G01*
X1112500Y1590000D02*
G03*
X1062500Y1540000I0J-50000D01*
G01*
X1063600Y790410D02*
G03*
X1113600Y740410I50000J0D01*
G01*
X863600Y990410D02*
G03*
X913600Y940410I50000J0D01*
G01*
X2613600Y1340410D02*
G03*
X2563600Y1390410I-50000J0D01*
G01*
X2413600Y1440410D02*
G03*
X2463600Y1390410I50000J0D01*
G01*
Y940410D02*
G03*
X2413600Y890410I0J-50000D01*
G01*
X2363600Y740410D02*
G03*
X2413600Y790410I0J50000D01*
G01*
Y1540410D02*
G03*
X2363600Y1590410I-50000J0D01*
G01*
X1113600D02*
G03*
X1063600Y1540410I0J-50000D01*
G01*
X1013600Y1390410D02*
G03*
X1063600Y1440410I0J50000D01*
G01*
X913600Y1390410D02*
G03*
X863600Y1340410I0J-50000D01*
G01*
X1063600Y890410D02*
G03*
X1013600Y940410I-50000J0D01*
G01*
X2612500Y990000D02*
Y1340000D01*
X912500Y940000D02*
X1012500D01*
X1112500Y740000D02*
X2362500D01*
X862500Y990000D02*
Y1340000D01*
X1062500Y790000D02*
Y890000D01*
Y1440000D02*
Y1540000D01*
X1112500Y1590000D02*
X2362500D01*
X2462500Y1390000D02*
X2562500D01*
X2462500Y940000D02*
X2562500D01*
X2412500Y1440000D02*
Y1540000D01*
Y790000D02*
Y890000D01*
X912500Y1390000D02*
X1012500D01*
X1063600Y1440410D02*
Y1540410D01*
X1113600Y1590410D02*
X2363600D01*
X863600Y990410D02*
Y1340410D01*
X913600Y1390410D02*
X1013600D01*
X2463600Y940410D02*
X2613600D01*
X1113600Y740410D02*
X2363600D01*
X2613600Y940410D02*
Y1340410D01*
X913600Y940410D02*
X1013600D01*
X2413600Y790410D02*
Y890410D01*
X2463600Y1390410D02*
X2563600D01*
X2413600Y1440410D02*
Y1540410D01*
X1063600Y790410D02*
Y890410D01*
D18*
X862532Y740000D02*
G03*
X862532Y740000I-32J0D01*
G01*
D02*
G03*
X862532Y740000I-32J0D01*
G01*
D19*
X1984400Y1066800D02*
D03*
X1920900D02*
D03*
X2047900D02*
D03*
X2066900D02*
D03*
X2003400D02*
D03*
X1939900D02*
D03*
D21*
X1454000Y1371750D02*
D03*
Y1352750D02*
D03*
X2305000Y1155500D02*
D03*
Y1174500D02*
D03*
X2197100Y1546200D02*
D03*
Y1527200D02*
D03*
X2146300Y1546200D02*
D03*
Y1527200D02*
D03*
X1257300D02*
D03*
Y1546200D02*
D03*
X1308100Y1527200D02*
D03*
Y1546200D02*
D03*
D85*
X1663700Y1206500D02*
D03*
X1645700D02*
D03*
X1393300Y1270000D02*
D03*
X1375300D02*
D03*
D86*
X2305500Y1273400D02*
D03*
Y1266900D02*
D03*
Y1260400D02*
D03*
Y1253900D02*
D03*
X2266500D02*
D03*
Y1260400D02*
D03*
Y1266900D02*
D03*
Y1273400D02*
D03*
D87*
X2295750Y1244150D02*
D03*
X2289250D02*
D03*
X2282750D02*
D03*
X2276250D02*
D03*
Y1283150D02*
D03*
X2282750D02*
D03*
X2289250D02*
D03*
X2295750D02*
D03*
D88*
X2286000Y1263650D02*
D03*
D89*
X1291500Y1282750D02*
D03*
X1275500D02*
D03*
D90*
X1275200Y1409700D02*
D03*
X1290200D02*
D03*
D91*
X1200750Y1425000D02*
D03*
X1184550D02*
D03*
D92*
X1284250Y1358750D02*
D03*
Y1342750D02*
D03*
D93*
X2503000Y1223000D02*
D03*
Y1091000D02*
D03*
X2375000D02*
D03*
Y1103000D02*
D03*
Y1115000D02*
D03*
Y1127000D02*
D03*
Y1139000D02*
D03*
Y1151000D02*
D03*
Y1163000D02*
D03*
Y1175000D02*
D03*
Y1187000D02*
D03*
Y1199000D02*
D03*
Y1211000D02*
D03*
Y1223000D02*
D03*
X2503000Y1103000D02*
D03*
Y1115000D02*
D03*
Y1127000D02*
D03*
Y1139000D02*
D03*
Y1151000D02*
D03*
Y1163000D02*
D03*
Y1175000D02*
D03*
Y1187000D02*
D03*
Y1199000D02*
D03*
Y1211000D02*
D03*
D94*
X1663700Y1409700D02*
D03*
Y1466220D02*
D03*
X1689100Y1409700D02*
D03*
Y1466220D02*
D03*
X1714500Y1409700D02*
D03*
Y1466220D02*
D03*
X1739900Y1409700D02*
D03*
Y1466220D02*
D03*
X1765300Y1409700D02*
D03*
Y1466220D02*
D03*
X1790700Y1409700D02*
D03*
Y1466220D02*
D03*
X1816100Y1409700D02*
D03*
Y1466220D02*
D03*
X1841500Y1409700D02*
D03*
Y1466220D02*
D03*
X1866900Y1409700D02*
D03*
Y1466220D02*
D03*
X1892300Y1409700D02*
D03*
Y1466220D02*
D03*
X1917700Y1409700D02*
D03*
Y1466220D02*
D03*
X1943100Y1409700D02*
D03*
Y1466220D02*
D03*
X1968500Y1409700D02*
D03*
Y1466220D02*
D03*
X1993900Y1409700D02*
D03*
Y1466220D02*
D03*
X2019300Y1409700D02*
D03*
Y1466220D02*
D03*
X2044700Y1409700D02*
D03*
Y1466220D02*
D03*
X2070100Y1409700D02*
D03*
Y1466220D02*
D03*
X2095500Y1409700D02*
D03*
Y1466220D02*
D03*
X2120900Y1409700D02*
D03*
Y1466220D02*
D03*
Y856620D02*
D03*
Y800100D02*
D03*
X2095500Y856620D02*
D03*
Y800100D02*
D03*
X2070100Y856620D02*
D03*
Y800100D02*
D03*
X2044700Y856620D02*
D03*
Y800100D02*
D03*
X2019300Y856620D02*
D03*
Y800100D02*
D03*
X1993900Y856620D02*
D03*
Y800100D02*
D03*
X1968500Y856620D02*
D03*
Y800100D02*
D03*
X1943100Y856620D02*
D03*
Y800100D02*
D03*
X1917700Y856620D02*
D03*
Y800100D02*
D03*
X1892300Y856620D02*
D03*
Y800100D02*
D03*
X1866900Y856620D02*
D03*
Y800100D02*
D03*
X1841500Y856620D02*
D03*
Y800100D02*
D03*
X1816100Y856620D02*
D03*
Y800100D02*
D03*
X1790700Y856620D02*
D03*
Y800100D02*
D03*
X1765300Y856620D02*
D03*
Y800100D02*
D03*
X1739900Y856620D02*
D03*
Y800100D02*
D03*
X1714500Y856620D02*
D03*
Y800100D02*
D03*
X1689100Y856620D02*
D03*
Y800100D02*
D03*
X1663700Y856620D02*
D03*
Y800100D02*
D03*
X1892300Y1466220D02*
D03*
Y1409700D02*
D03*
X1917700D02*
D03*
X1739900D02*
D03*
X1892300Y800100D02*
D03*
X1765300Y856620D02*
D03*
X1663700D02*
D03*
Y1409700D02*
D03*
X1689100D02*
D03*
Y1466220D02*
D03*
X1714500Y1409700D02*
D03*
Y1466220D02*
D03*
X1739900D02*
D03*
X1765300Y1409700D02*
D03*
Y1466220D02*
D03*
X1790700Y1409700D02*
D03*
Y1466220D02*
D03*
X1816100Y1409700D02*
D03*
Y1466220D02*
D03*
X1841500Y1409700D02*
D03*
Y1466220D02*
D03*
X1866900Y1409700D02*
D03*
Y1466220D02*
D03*
X1917700D02*
D03*
X1943100Y1409700D02*
D03*
Y1466220D02*
D03*
X1968500Y1409700D02*
D03*
Y1466220D02*
D03*
X1993900Y1409700D02*
D03*
Y1466220D02*
D03*
X2019300Y1409700D02*
D03*
Y1466220D02*
D03*
X2044700Y1409700D02*
D03*
Y1466220D02*
D03*
X2070100Y1409700D02*
D03*
Y1466220D02*
D03*
X2095500Y1409700D02*
D03*
Y1466220D02*
D03*
X2120900Y1409700D02*
D03*
Y1466220D02*
D03*
Y856620D02*
D03*
Y800100D02*
D03*
X2095500Y856620D02*
D03*
Y800100D02*
D03*
X2070100Y856620D02*
D03*
Y800100D02*
D03*
X2044700Y856620D02*
D03*
Y800100D02*
D03*
X2019300Y856620D02*
D03*
Y800100D02*
D03*
X1993900Y856620D02*
D03*
Y800100D02*
D03*
X1968500Y856620D02*
D03*
Y800100D02*
D03*
X1943100Y856620D02*
D03*
Y800100D02*
D03*
X1917700Y856620D02*
D03*
Y800100D02*
D03*
X1892300Y856620D02*
D03*
X1866900D02*
D03*
Y800100D02*
D03*
X1841500Y856620D02*
D03*
Y800100D02*
D03*
X1816100Y856620D02*
D03*
Y800100D02*
D03*
X1790700Y856620D02*
D03*
Y800100D02*
D03*
X1765300D02*
D03*
X1739900Y856620D02*
D03*
Y800100D02*
D03*
X1714500Y856620D02*
D03*
Y800100D02*
D03*
X1689100Y856620D02*
D03*
Y800100D02*
D03*
X1663700Y856620D02*
D03*
Y800100D02*
D03*
Y1466220D02*
D03*
D95*
X2470000Y1063000D02*
D03*
X2408000D02*
D03*
X2480000D02*
D03*
X2398000D02*
D03*
X2421000D02*
D03*
X2433000D02*
D03*
X2445000D02*
D03*
X2457000D02*
D03*
D96*
X2067900Y993800D02*
D03*
X2004400D02*
D03*
X1940900D02*
D03*
X2046900Y1003300D02*
D03*
X2067900Y1012800D02*
D03*
X1983400Y1003300D02*
D03*
X2004400Y1012800D02*
D03*
X1919900Y1003300D02*
D03*
X1940900Y1012800D02*
D03*
D97*
X1384300Y1409700D02*
D03*
X1368300D02*
D03*
D98*
X1447800Y1256500D02*
D03*
Y1283500D02*
D03*
D99*
X1386400Y1343900D02*
D03*
Y1358900D02*
D03*
Y1353900D02*
D03*
Y1348900D02*
D03*
X1371600Y1343900D02*
D03*
Y1348900D02*
D03*
Y1353900D02*
D03*
Y1358900D02*
D03*
D100*
X2383000Y1260000D02*
D03*
X2495000D02*
D03*
X2383000Y1070000D02*
D03*
X2495000D02*
D03*
D101*
X1193800Y1314200D02*
D03*
Y1378200D02*
D03*
M02*
